<svg xmlns="http://www.w3.org/2000/svg" xmlns:xlink="http://www.w3.org/1999/xlink" viewBox="0 0 233.6 222.4"><defs><style>.cls-1{isolation:isolate;}.cls-2{fill:url(#Degradado_sin_nombre_861);}.cls-3,.cls-5,.cls-8{mix-blend-mode:multiply;}.cls-3{fill:url(#Degradado_sin_nombre_861-2);}.cls-4{fill:url(#Degradado_sin_nombre_861-3);}.cls-6{fill:none;}.cls-7{fill:url(#Degradado_sin_nombre_861-4);}.cls-8{fill:url(#Degradado_sin_nombre_861-5);}.cls-9{fill:url(#Degradado_sin_nombre_861-6);}.cls-10{fill:url(#Degradado_sin_nombre_861-7);}.cls-11{fill:url(#Degradado_sin_nombre_861-8);}.cls-12{fill:url(#Degradado_sin_nombre_861-9);}.cls-13{fill:url(#Degradado_sin_nombre_861-10);}.cls-14{fill:url(#Degradado_sin_nombre_861-11);}.cls-15{fill:#fff;}</style><radialGradient id="Degradado_sin_nombre_861" cx="54.29" cy="146.28" r="64.26" gradientUnits="userSpaceOnUse"><stop offset="0" stop-color="#220549"/><stop offset="1" stop-color="#15002b"/></radialGradient><radialGradient id="Degradado_sin_nombre_861-2" cx="47.94" cy="121.16" r="47.85" xlink:href="#Degradado_sin_nombre_861"/><radialGradient id="Degradado_sin_nombre_861-3" cx="54.28" cy="74.88" r="64.26" xlink:href="#Degradado_sin_nombre_861"/><radialGradient id="Degradado_sin_nombre_861-4" cx="179.32" cy="74.89" r="64.26" xlink:href="#Degradado_sin_nombre_861"/><radialGradient id="Degradado_sin_nombre_861-5" cx="185.67" cy="100.01" r="47.85" xlink:href="#Degradado_sin_nombre_861"/><radialGradient id="Degradado_sin_nombre_861-6" cx="179.32" cy="146.28" r="64.26" xlink:href="#Degradado_sin_nombre_861"/><radialGradient id="Degradado_sin_nombre_861-7" cx="175.17" cy="151.84" r="50.41" xlink:href="#Degradado_sin_nombre_861"/><radialGradient id="Degradado_sin_nombre_861-8" cx="171.01" cy="139.37" r="46.26" xlink:href="#Degradado_sin_nombre_861"/><radialGradient id="Degradado_sin_nombre_861-9" cx="162.7" cy="114.44" r="37.95" xlink:href="#Degradado_sin_nombre_861"/><radialGradient id="Degradado_sin_nombre_861-10" cx="166.85" cy="126.91" r="42.1" xlink:href="#Degradado_sin_nombre_861"/><radialGradient id="Degradado_sin_nombre_861-11" cx="179.32" cy="164.31" r="54.57" xlink:href="#Degradado_sin_nombre_861"/></defs><title>new_logo_colored</title><g class="cls-1"><g id="Layer_2" data-name="Layer 2"><g id="BACKGROUND"><path class="cls-2" d="M0,110.6,108.57,219.16v-7.91L4,106.64ZM12.26,98.32l-3.95,4,42.13,42.13,58.13,58.13v-7.92L54.42,140.47Zm67.25,17.37,0,0L37.21,73.39l-4,4,42.26,42.28,33.05,33.05v-8Zm-50.62-34-4,4,83.64,83.63v-7.91L71.15,124ZM16.63,94l91.94,91.94V178l-88-88Z"/><path class="cls-3" d="M8.31,102.28,66.8,160.65l4-3.93L12.26,98.32ZM0,110.6l58.44,58.32,4-3.94L4,106.64ZM24.93,85.65l58.6,58.49,4-3.94L28.89,81.69ZM37.21,73.39l-4,4,58.62,58.52,4-3.93ZM16.63,94l58.53,58.42,4-3.92L20.59,90Z"/><path class="cls-4" d="M108.56,2,0,110.56l4,4L108.56,9.92Zm0,33.25L16.62,127.19l4,4,88-88Zm0-16.62L8.31,118.87l4,4,96.29-96.29Zm0,33.24L24.94,135.5l3.95,4,79.68-79.68Zm-71.35,95.9,71.35-71.34V68.49L33.25,143.81Z"/><g class="cls-5"><polygon class="cls-6" points="108.56 2 107.55 3.02 107.55 8.9 2.94 113.5 3.96 114.52 108.56 9.92 108.56 2"/><polygon class="cls-6" points="108.56 18.63 107.55 19.64 107.55 25.52 11.25 121.81 12.27 122.83 108.56 26.54 108.56 18.63"/><polygon class="cls-6" points="108.56 51.87 107.55 52.88 107.55 58.77 27.88 138.44 28.89 139.46 108.57 59.78 108.56 51.87"/><polygon class="cls-6" points="108.56 35.25 107.55 36.27 107.55 42.15 19.56 130.13 20.58 131.15 108.56 43.16 108.56 35.25"/><polygon class="cls-6" points="107.55 75.41 36.19 146.75 37.21 147.77 108.56 76.43 108.56 68.49 107.55 69.51 107.55 75.41"/></g><path class="cls-7" d="M233.6,110.56,125,2V9.91l104.6,104.61Zm-12.26,12.28,4-4L183.16,76.75,125,18.63v7.91l54.15,54.15Zm-67.25-17.37,0,0,42.28,42.26,4-4-42.27-42.28-33-33v7.94Zm50.62,34,4-4L125,51.88v7.91L162.45,97.2ZM217,127.19,125,35.25v7.91l88,88Z"/><path class="cls-8" d="M225.3,118.89,166.81,60.51l-4,3.93,58.51,58.4Zm8.3-8.33L175.17,52.24l-4,3.94,58.45,58.34Zm-24.93,24.95L150.07,77l-4,3.94,58.62,58.51Zm-12.28,12.26,4-4L141.73,85.29l-4,3.94ZM217,127.19,158.45,68.77l-4,3.92L213,131.14Z"/><path class="cls-9" d="M125,202.54,225.29,102.29l-4-4L125,194.62Zm0-16.63L217,94l-4-4-88,88Zm104.61-79.27L125,211.25v7.91L233.6,110.6ZM196.4,73.39,125,144.73v7.94l75.32-75.32Zm8.31,8.32L125,161.38v7.91l83.63-83.63Z"/><g class="cls-5"><polygon class="cls-10" points="125.04 202.54 225.29 102.29 224.15 101.14 126.51 198.78 126.51 193.15 125.04 194.62 125.04 202.54"/><polygon class="cls-11" points="125.04 178 125.04 185.91 216.98 93.97 215.84 92.83 126.51 182.15 126.51 176.53 125.04 178"/><polygon class="cls-12" points="199.21 76.21 126.51 148.91 126.51 143.26 125.04 144.73 125.04 152.67 200.35 77.35 199.21 76.21"/><polygon class="cls-13" points="207.52 84.52 126.51 165.53 126.51 159.91 125.04 161.38 125.04 169.29 208.67 85.66 207.52 84.52"/><polygon class="cls-14" points="126.51 215.4 126.51 209.78 125.04 211.25 125.04 219.16 233.6 110.6 232.46 109.45 126.51 215.4"/></g><line class="cls-15" x1="116.39" x2="116.39" y2="222.4"/><line class="cls-15" x1="122.88" y1="112.92" x2="152.59" y2="112.92"/></g></g></g></svg>