<svg xmlns="http://www.w3.org/2000/svg" xmlns:xlink="http://www.w3.org/1999/xlink" width="561.971" height="562.268" viewBox="0 0 561.971 562.268">
  <defs>
    <linearGradient id="linear-gradient" x1="1.125" y1="1.299" x2="0.238" y2="0.189" gradientUnits="objectBoundingBox">
      <stop offset="0" stop-color="#b37cff"/>
      <stop offset="1" stop-color="#f895e7"/>
    </linearGradient>
    <linearGradient id="linear-gradient-2" x1="-0.299" y1="1.059" x2="0.697" y2="1.059" xlink:href="#linear-gradient"/>
    <linearGradient id="linear-gradient-3" x1="-0.511" y1="1.64" x2="0.485" y2="1.64" xlink:href="#linear-gradient"/>
    <linearGradient id="linear-gradient-4" x1="9.738" y1="0.102" x2="11.717" y2="0.102" gradientUnits="objectBoundingBox">
      <stop offset="0" stop-color="#a737d5"/>
      <stop offset="1" stop-color="#ef497a"/>
    </linearGradient>
    <linearGradient id="linear-gradient-5" x1="-3.429" y1="2.562" x2="-0.81" y2="2.562" xlink:href="#linear-gradient"/>
    <linearGradient id="linear-gradient-6" x1="0.52" y1="1.509" x2="0.468" y2="0.18" gradientUnits="objectBoundingBox">
      <stop offset="0" stop-color="#2b3582"/>
      <stop offset="1" stop-color="#150e42"/>
    </linearGradient>
    <linearGradient id="linear-gradient-7" x1="0" y1="0.5" x2="1" y2="0.5" xlink:href="#linear-gradient-6"/>
    <linearGradient id="linear-gradient-8" x1="0.602" y1="-0.008" x2="0.096" y2="2.467" gradientUnits="objectBoundingBox">
      <stop offset="0" stop-color="#53d8ff"/>
      <stop offset="1" stop-color="#3840f7"/>
    </linearGradient>
    <linearGradient id="linear-gradient-9" x1="0.525" y1="0.297" x2="0.225" y2="5.134" xlink:href="#linear-gradient-6"/>
    <linearGradient id="linear-gradient-10" x1="0.531" y1="-3.225" x2="0.472" y2="4.226" xlink:href="#linear-gradient-8"/>
    <linearGradient id="linear-gradient-11" x1="-22.235" y1="2.29" x2="11.338" y2="-0.353" xlink:href="#linear-gradient-8"/>
    <linearGradient id="linear-gradient-12" x1="-20.655" y1="2.166" x2="12.919" y2="-0.478" xlink:href="#linear-gradient-8"/>
    <linearGradient id="linear-gradient-13" x1="-0.677" y1="2.052" x2="1.278" y2="-0.536" xlink:href="#linear-gradient-8"/>
    <linearGradient id="linear-gradient-14" x1="-0.764" y1="2.167" x2="1.176" y2="-0.402" xlink:href="#linear-gradient-8"/>
    <linearGradient id="linear-gradient-15" x1="-0.271" y1="64.331" x2="0.693" y2="-15.457" xlink:href="#linear-gradient-8"/>
    <linearGradient id="linear-gradient-16" x1="-1.014" y1="71.739" x2="1.106" y2="-27.997" xlink:href="#linear-gradient-8"/>
    <linearGradient id="linear-gradient-17" x1="-0.721" y1="61.582" x2="1.273" y2="-38.151" xlink:href="#linear-gradient-8"/>
    <linearGradient id="linear-gradient-18" x1="-0.522" y1="51.629" x2="1.472" y2="-48.113" xlink:href="#linear-gradient-8"/>
    <linearGradient id="linear-gradient-19" x1="-17.028" y1="4.474" x2="-17.013" y2="8.118" xlink:href="#linear-gradient-6"/>
    <linearGradient id="linear-gradient-20" x1="-57.085" y1="1.164" x2="-57.348" y2="-0.58" gradientUnits="objectBoundingBox">
      <stop offset="0" stop-color="#f9b776"/>
      <stop offset="1" stop-color="#f47960"/>
    </linearGradient>
    <linearGradient id="linear-gradient-21" x1="-38.515" y1="3.704" x2="-38.488" y2="7.135" xlink:href="#linear-gradient-6"/>
    <linearGradient id="linear-gradient-22" x1="-76.353" y1="1.13" x2="-76.638" y2="-0.791" xlink:href="#linear-gradient-20"/>
    <linearGradient id="linear-gradient-23" x1="-8.205" y1="0.5" x2="-7.205" y2="0.5" xlink:href="#linear-gradient-6"/>
    <linearGradient id="linear-gradient-24" x1="-328.072" y1="2.369" x2="-326.69" y2="1.878" xlink:href="#linear-gradient-8"/>
    <linearGradient id="linear-gradient-25" x1="0.451" y1="0.777" x2="1.134" y2="-0.807" gradientUnits="objectBoundingBox">
      <stop offset="0" stop-color="#cb236d"/>
      <stop offset="1" stop-color="#4c246d"/>
    </linearGradient>
    <linearGradient id="linear-gradient-26" x1="8.744" y1="-1.859" x2="6.025" y2="-1.081" xlink:href="#linear-gradient-25"/>
    <linearGradient id="linear-gradient-27" x1="-17.14" y1="0.5" x2="-16.14" y2="0.5" xlink:href="#linear-gradient-20"/>
    <linearGradient id="linear-gradient-28" x1="-7.727" y1="0.5" x2="-6.727" y2="0.5" xlink:href="#linear-gradient-20"/>
    <linearGradient id="linear-gradient-29" x1="-33.759" y1="1.029" x2="-32.47" y2="0.222" xlink:href="#linear-gradient-20"/>
    <linearGradient id="linear-gradient-30" x1="-25.349" y1="0.175" x2="-26.666" y2="1.493" xlink:href="#linear-gradient-20"/>
    <linearGradient id="linear-gradient-31" x1="-16.557" y1="0.5" x2="-15.557" y2="0.5" xlink:href="#linear-gradient-6"/>
    <linearGradient id="linear-gradient-32" x1="-87.312" y1="2.763" x2="-84.05" y2="0.44" xlink:href="#linear-gradient-20"/>
    <linearGradient id="linear-gradient-33" x1="1.809" y1="-0.767" x2="1.346" y2="-0.338" xlink:href="#linear-gradient-25"/>
    <linearGradient id="linear-gradient-34" x1="-11.674" y1="1.423" x2="-11.46" y2="-0.469" xlink:href="#linear-gradient-8"/>
    <linearGradient id="linear-gradient-35" x1="-11.443" y1="1.425" x2="-11.23" y2="-0.467" xlink:href="#linear-gradient-8"/>
    <linearGradient id="linear-gradient-36" x1="-3.967" y1="1.595" x2="-3.668" y2="-0.342" xlink:href="#linear-gradient-8"/>
    <linearGradient id="linear-gradient-37" x1="-3.736" y1="1.598" x2="-3.438" y2="-0.339" xlink:href="#linear-gradient-8"/>
    <linearGradient id="linear-gradient-38" x1="-57.834" y1="-0.903" x2="-58.426" y2="2.001" xlink:href="#linear-gradient-25"/>
    <linearGradient id="linear-gradient-39" x1="-6.148" y1="-31.124" x2="-6.216" y2="17.409" xlink:href="#linear-gradient-25"/>
    <linearGradient id="linear-gradient-40" x1="-4.776" y1="-2.351" x2="-4.83" y2="7.705" xlink:href="#linear-gradient-25"/>
    <linearGradient id="linear-gradient-41" x1="-10.314" y1="0.5" x2="-9.314" y2="0.5" xlink:href="#linear-gradient-20"/>
    <linearGradient id="linear-gradient-42" x1="-13.529" y1="0.006" x2="-13.733" y2="3.202" xlink:href="#linear-gradient-25"/>
    <linearGradient id="linear-gradient-43" x1="-5.474" y1="0.5" x2="-4.474" y2="0.5" xlink:href="#linear-gradient-20"/>
    <linearGradient id="linear-gradient-44" x1="-3.678" y1="0.5" x2="-2.678" y2="0.5" gradientUnits="objectBoundingBox">
      <stop offset="0" stop-color="#fdf53f"/>
      <stop offset="0.665" stop-color="#e57a58"/>
      <stop offset="1" stop-color="#d93c65"/>
    </linearGradient>
    <linearGradient id="linear-gradient-45" x1="-13.527" y1="-2.158" x2="-13.686" y2="6.275" xlink:href="#linear-gradient-25"/>
    <linearGradient id="linear-gradient-46" x1="0.208" y1="1.071" x2="1.101" y2="-0.528" xlink:href="#linear-gradient-25"/>
    <linearGradient id="linear-gradient-47" x1="-4.254" y1="0.171" x2="-3.633" y2="1.621" xlink:href="#linear-gradient-44"/>
    <linearGradient id="linear-gradient-48" x1="-19.185" y1="1.885" x2="-19.415" y2="0.326" xlink:href="#linear-gradient-20"/>
    <linearGradient id="linear-gradient-49" x1="-12.643" y1="0.3" x2="-11.359" y2="1.091" xlink:href="#linear-gradient-20"/>
    <linearGradient id="linear-gradient-50" x1="-0.754" y1="2.262" x2="1.008" y2="-0.4" xlink:href="#linear-gradient-25"/>
    <linearGradient id="linear-gradient-51" x1="-43.078" y1="-1.101" x2="-38.057" y2="1.863" xlink:href="#linear-gradient-20"/>
    <linearGradient id="linear-gradient-52" x1="-3.513" y1="0.5" x2="-2.513" y2="0.5" xlink:href="#linear-gradient-20"/>
    <linearGradient id="linear-gradient-53" x1="0.528" y1="-10.34" x2="0.499" y2="0.923" xlink:href="#linear-gradient-25"/>
    <linearGradient id="linear-gradient-54" x1="0.513" y1="-0.106" x2="0.49" y2="1.018" xlink:href="#linear-gradient-4"/>
    <linearGradient id="linear-gradient-55" x1="0" y1="0.5" x2="1" y2="0.5" xlink:href="#linear-gradient"/>
    <linearGradient id="linear-gradient-57" x1="-8.775" y1="4.297" x2="-8.779" y2="2.582" xlink:href="#linear-gradient-44"/>
    <linearGradient id="linear-gradient-58" x1="-0.99" y1="-4.546" x2="-1.287" y2="25.573" xlink:href="#linear-gradient-8"/>
    <linearGradient id="linear-gradient-59" x1="-4.306" y1="0.302" x2="-3.635" y2="1.263" xlink:href="#linear-gradient-20"/>
    <linearGradient id="linear-gradient-60" x1="-18.632" y1="1.592" x2="-17.02" y2="4.225" xlink:href="#linear-gradient-20"/>
    <linearGradient id="linear-gradient-61" x1="0.462" y1="0.486" x2="-0.772" y2="1.948" xlink:href="#linear-gradient-4"/>
    <linearGradient id="linear-gradient-62" x1="-2.418" y1="-0.346" x2="-2.055" y2="0.297" xlink:href="#linear-gradient-6"/>
    <linearGradient id="linear-gradient-63" x1="-1.538" y1="0.5" x2="-0.538" y2="0.5" xlink:href="#linear-gradient-4"/>
    <linearGradient id="linear-gradient-64" x1="-7.064" y1="1.602" x2="-6.029" y2="-1.187" xlink:href="#linear-gradient-20"/>
    <linearGradient id="linear-gradient-65" x1="-6.311" y1="0.5" x2="-5.311" y2="0.5" xlink:href="#linear-gradient-4"/>
    <linearGradient id="linear-gradient-66" x1="-0.982" y1="1.698" x2="-0.519" y2="-1.193" xlink:href="#linear-gradient-20"/>
    <linearGradient id="linear-gradient-67" x1="-3.191" y1="-0.031" x2="-1.587" y2="4.08" xlink:href="#linear-gradient-44"/>
    <linearGradient id="linear-gradient-68" x1="-2.522" y1="-0.682" x2="-1.162" y2="2.359" xlink:href="#linear-gradient-25"/>
    <linearGradient id="linear-gradient-69" x1="-9.832" y1="1.857" x2="-9.578" y2="0.807" xlink:href="#linear-gradient-20"/>
    <linearGradient id="linear-gradient-70" x1="-6.909" y1="1.328" x2="-5.448" y2="-1.033" xlink:href="#linear-gradient-20"/>
    <linearGradient id="linear-gradient-71" x1="-6.051" y1="-0.334" x2="-5.35" y2="0.994" xlink:href="#linear-gradient-6"/>
    <linearGradient id="linear-gradient-72" x1="-23.834" y1="3.259" x2="-18.518" y2="-4.348" xlink:href="#linear-gradient-20"/>
    <linearGradient id="linear-gradient-73" x1="14.966" y1="12.548" x2="15.549" y2="12.548" xlink:href="#linear-gradient-20"/>
    <linearGradient id="linear-gradient-74" x1="0.794" y1="0.084" x2="-0.492" y2="1.905" xlink:href="#linear-gradient-4"/>
    <linearGradient id="linear-gradient-75" x1="0.721" y1="-0.082" x2="-0.708" y2="3.686" xlink:href="#linear-gradient-44"/>
    <linearGradient id="linear-gradient-76" x1="0" y1="0.5" x2="1" y2="0.5" xlink:href="#linear-gradient-4"/>
  </defs>
  <g id="Group_41" data-name="Group 41" transform="translate(-458.821 -440.582)">
    <path id="Path_1" data-name="Path 1" d="M962.639,929.029c-11.5,11.958-22.378,19.671-30.974,25.764-101.043,71.622-220.6,50.744-246.015,45.646-37.523-7.529-110.054-22.082-162.492-83-79.335-92.166-66.981-237.372-5.444-333.224,11.256-17.533,70.715-114.846,191.564-130.451,73.136-9.444,158.39,9.6,220.129,60.7C1059,621.723,1049.775,838.406,962.639,929.029Z" transform="translate(-6.993 -8.665)" opacity="0.3" fill="url(#linear-gradient)"/>
    <g id="Group_9" data-name="Group 9" transform="translate(786.472 440.582)">
      <g id="Group_4" data-name="Group 4">
        <g id="Group_1" data-name="Group 1" transform="translate(4.438)">
          <path id="Path_2" data-name="Path 2" d="M2109.815,657.221a.72.72,0,0,1-.828-.988c.386-.885.794-1.774,1.212-2.642a.72.72,0,1,1,1.3.625c-.41.851-.81,1.724-1.189,2.593A.719.719,0,0,1,2109.815,657.221Z" transform="translate(-2108.926 -610.397)" fill="#eac4f9"/>
          <path id="Path_3" data-name="Path 3" d="M2271.409,485.851a.722.722,0,0,1-.822-.4c-.817-1.768-1.715-3.525-2.668-5.222a.72.72,0,0,1,1.256-.706c.972,1.731,1.888,3.522,2.721,5.323a.72.72,0,0,1-.352.956A.673.673,0,0,1,2271.409,485.851Zm-7.932-13.338a.721.721,0,0,1-.747-.27c-1.16-1.557-2.4-3.093-3.684-4.563a.721.721,0,0,1,1.085-.949c1.31,1.5,2.573,3.064,3.755,4.652a.722.722,0,0,1-.148,1.008A.711.711,0,0,1,2263.477,472.513Zm-10.491-11.438a.717.717,0,0,1-.648-.162c-1.458-1.3-2.981-2.551-4.528-3.726a.72.72,0,1,1,.871-1.148c1.577,1.2,3.129,2.476,4.615,3.8a.72.72,0,0,1-.31,1.238Zm-113.75,15.337a.72.72,0,0,1-.772-1.093c1.082-1.66,2.244-3.3,3.455-4.877a.72.72,0,0,1,1.142.878c-1.188,1.546-2.329,3.156-3.39,4.785A.718.718,0,0,1,2139.237,476.411ZM2240.4,452a.719.719,0,0,1-.528-.076c-1.685-.97-3.432-1.885-5.19-2.719a.721.721,0,0,1,.618-1.3c1.792.851,3.572,1.784,5.292,2.773A.72.72,0,0,1,2240.4,452Zm-91.41,12.342a.72.72,0,0,1-.681-1.207c1.4-1.413,2.872-2.786,4.37-4.079a.72.72,0,0,1,.941,1.09c-1.47,1.269-2.913,2.616-4.288,4A.712.712,0,0,1,2148.993,464.339Zm77.236-18.646a.717.717,0,0,1-.392-.016c-1.845-.6-3.742-1.139-5.64-1.6a.72.72,0,1,1,.338-1.4c1.935.466,3.869,1.015,5.749,1.629a.72.72,0,0,1-.055,1.385Zm-65.243,8.795a.72.72,0,0,1-.566-1.3c1.656-1.1,3.375-2.139,5.111-3.1a.72.72,0,1,1,.7,1.26c-1.7.943-3.389,1.967-5.014,3.042A.717.717,0,0,1,2160.986,454.488Zm50.077-12.066a.7.7,0,0,1-.248.016c-1.934-.213-3.9-.353-5.849-.416a.72.72,0,1,1,.046-1.439c1.984.063,3.989.206,5.961.423a.72.72,0,0,1,.089,1.416Zm-15.515-.12a.742.742,0,0,1-.1.017c-1.936.182-3.891.445-5.813.779a.72.72,0,0,1-.833-.586.736.736,0,0,1,.586-.833c1.958-.341,3.952-.608,5.925-.794a.72.72,0,0,1,.237,1.417Zm-20.807,5a.72.72,0,0,1-.434-1.37c1.845-.732,3.742-1.4,5.638-1.986a.72.72,0,1,1,.425,1.376c-1.86.574-3.722,1.229-5.531,1.948A.722.722,0,0,1,2174.741,447.3Z" transform="translate(-2132.427 -440.582)" fill="#eac4f9"/>
          <path id="Path_4" data-name="Path 4" d="M2814.091,707.376a.72.72,0,0,1-.863-.51c-.249-.912-.52-1.832-.8-2.736a.721.721,0,0,1,.471-.9.729.729,0,0,1,.9.471c.29.921.566,1.859.82,2.788a.722.722,0,0,1-.505.885Z" transform="translate(-2670.815 -650.345)" fill="#eac4f9"/>
        </g>
        <g id="Group_2" data-name="Group 2" transform="translate(0 92.258)">
          <path id="Path_5" data-name="Path 5" d="M2778.479,999.149a.72.72,0,0,1-.789-1.067c.485-.82.958-1.655,1.4-2.483a.721.721,0,0,1,1.268.686c-.456.843-.937,1.694-1.433,2.53A.715.715,0,0,1,2778.479,999.149Z" transform="translate(-2638.582 -975.857)" fill="#eac4f9"/>
          <path id="Path_6" data-name="Path 6" d="M2194,1004.216l-.635.15a.72.72,0,0,1-.331-1.4l.007,0,.622-.147c1.653-.4,3.317-.86,4.945-1.372a.721.721,0,0,1,.432,1.375C2197.384,1003.339,2195.688,1003.81,2194,1004.216Zm-9.96,1.707a.71.71,0,0,1-.1.017c-1.94.2-3.915.329-5.868.381a.721.721,0,0,1-.038-1.441c1.917-.051,3.854-.176,5.758-.374a.72.72,0,0,1,.244,1.416Zm23.782-6.494a.72.72,0,0,1-.469-1.355c1.743-.8,3.474-1.679,5.146-2.61a.72.72,0,1,1,.7,1.258c-1.7.95-3.469,1.845-5.246,2.662A.741.741,0,0,1,2207.825,999.429Zm-39.054,6.537a.707.707,0,0,1-.239.016c-1.948-.191-3.907-.459-5.825-.8a.721.721,0,0,1,.25-1.419c1.882.332,3.806.6,5.716.784a.72.72,0,0,1,.1,1.417Zm52.212-14.291a.72.72,0,0,1-.6-1.28c1.537-1.13,3.055-2.339,4.513-3.6a.72.72,0,0,1,.94,1.092c-1.486,1.28-3.034,2.513-4.6,3.664A.714.714,0,0,1,2220.983,991.675Zm-67.181,11.278a.709.709,0,0,1-.38-.012c-1.863-.576-3.729-1.232-5.546-1.952a.72.72,0,1,1,.531-1.339c1.782.705,3.613,1.349,5.44,1.915a.72.72,0,0,1-.045,1.388Zm78.513-21.518a.72.72,0,0,1-.7-1.184c1.286-1.42,2.535-2.908,3.709-4.421a.721.721,0,0,1,1.139.883c-1.2,1.541-2.469,3.057-3.78,4.5A.716.716,0,0,1,2232.316,981.435Zm-92.565,15.554a.713.713,0,0,1-.515-.07c-1.706-.938-3.4-1.959-5.038-3.032a.72.72,0,0,1,.79-1.2c1.606,1.054,3.269,2.054,4.942,2.976a.72.72,0,0,1-.179,1.331Zm-12.561-8.679a.717.717,0,0,1-.636-.152c-1.17-1-2.326-2.042-3.44-3.112q-.45-.432-.89-.869a.72.72,0,0,1,1.014-1.023q.432.43.874.853c1.093,1.05,2.229,2.077,3.376,3.055a.72.72,0,0,1-.3,1.248ZM2116.606,977.3a.721.721,0,0,1-.736-.255c-1.206-1.537-2.366-3.139-3.45-4.765a.72.72,0,0,1,1.2-.8c1.063,1.594,2.2,3.167,3.385,4.675a.721.721,0,0,1-.4,1.145Zm-8.161-12.908a.72.72,0,0,1-.813-.379c-.87-1.747-1.682-3.551-2.416-5.364a.72.72,0,0,1,1.336-.54c.719,1.778,1.517,3.549,2.369,5.262a.719.719,0,0,1-.324.966A.691.691,0,0,1,2108.445,964.391Z" transform="translate(-2101.483 -945.854)" fill="#eac4f9"/>
          <path id="Path_7" data-name="Path 7" d="M2088.446,903.217a.72.72,0,0,1-.864-.516c-.246-.928-.478-1.877-.69-2.824a.752.752,0,0,1,.545-.86.721.721,0,0,1,.861.545c.208.929.436,1.861.676,2.771a.72.72,0,0,1-.511.881Z" transform="translate(-2086.875 -898.998)" fill="#eac4f9"/>
        </g>
        <g id="Group_3" data-name="Group 3" transform="translate(16.682 17.637)">
          <path id="Path_8" data-name="Path 8" d="M2169.767,592.454a.907.907,0,0,0,.6.866l10.407,3.727a48.137,48.137,0,0,0,5.795,14.485l-4.955,9.874a.908.908,0,0,0,.162,1.042l9.264,9.486a.909.909,0,0,0,1.038.187l9.988-4.721a48.159,48.159,0,0,0,14.344,6.135l3.48,10.493a.909.909,0,0,0,.851.622l13.259.157a.909.909,0,0,0,.866-.6L2238.6,633.8A48.162,48.162,0,0,0,2253.081,628l9.874,4.955A.908.908,0,0,0,2264,632.8l9.487-9.265a.908.908,0,0,0,.187-1.038l-4.721-9.988a48.151,48.151,0,0,0,6.135-14.345l10.493-3.48a.909.909,0,0,0,.622-.851l.157-13.259a.909.909,0,0,0-.6-.866l-10.407-3.727a48.164,48.164,0,0,0-5.794-14.486l4.955-9.874a.909.909,0,0,0-.162-1.042l-9.265-9.486a.908.908,0,0,0-1.038-.186l-9.989,4.721a48.143,48.143,0,0,0-14.344-6.135L2236.23,529a.908.908,0,0,0-.852-.622l-13.259-.157a.909.909,0,0,0-.866.6l-3.727,10.407a48.157,48.157,0,0,0-14.486,5.8l-9.874-4.956a.908.908,0,0,0-1.042.162l-9.486,9.265a.909.909,0,0,0-.187,1.038l4.721,9.988a48.164,48.164,0,0,0-6.135,14.344l-10.493,3.48a.908.908,0,0,0-.622.851Z" transform="translate(-2169.767 -528.218)" fill="url(#linear-gradient-2)"/>
          <path id="Path_9" data-name="Path 9" d="M2411.4,779.367l-.012,0a12.43,12.43,0,1,1,.012,0Zm-5.516-22.893a10.694,10.694,0,0,0,5,20.795l.01,0a10.694,10.694,0,0,0-5-20.795Z" transform="translate(-2350.094 -708.575)" fill="#fff" opacity="0.47"/>
          <path id="Path_10" data-name="Path 10" d="M2341.673,718.7a33.108,33.108,0,0,1-35.822-14.555l1.829-1.15a30.956,30.956,0,0,0,39.078,11.673l.064-.029.066-.031a30.929,30.929,0,0,0,17.9-27.68,31.129,31.129,0,0,0-.859-7.667,30.927,30.927,0,0,0-59.95-.59l-2.09-.55a33.083,33.083,0,1,1,39.784,40.578Z" transform="translate(-2275.299 -628.29)" fill="#fff" opacity="0.47"/>
        </g>
      </g>
      <g id="Group_8" data-name="Group 8" transform="translate(131.363 34.557)">
        <g id="Group_5" data-name="Group 5" transform="translate(3.007)">
          <path id="Path_11" data-name="Path 11" d="M2755.555,754.9a.822.822,0,0,1-.946-1.128c.443-1.018.925-2.034,1.433-3.018a.822.822,0,1,1,1.462.753c-.491.953-.957,1.936-1.387,2.921A.819.819,0,0,1,2755.555,754.9Z" transform="translate(-2754.54 -722.528)" fill="#eac4f9"/>
          <path id="Path_12" data-name="Path 12" d="M2876.328,638.291a.822.822,0,0,1-.893-.368,50.361,50.361,0,0,0-3.93-5.513.823.823,0,0,1,1.272-1.043,52.087,52.087,0,0,1,4.058,5.694.822.822,0,0,1-.27,1.131A.808.808,0,0,1,2876.328,638.291Zm-11.964-13.428a.821.821,0,0,1-.7-.154,50.521,50.521,0,0,0-5.583-3.829.822.822,0,0,1,.836-1.416,52.038,52.038,0,0,1,5.765,3.954.822.822,0,0,1-.316,1.445Zm-71.147,7.512a.822.822,0,0,1-.825-1.326c.793-.952,1.633-1.891,2.5-2.794.749-.78,1.529-1.544,2.32-2.271a.822.822,0,0,1,1.114,1.21c-.767.705-1.523,1.445-2.248,2.2-.84.875-1.655,1.786-2.422,2.707A.82.82,0,0,1,2793.216,632.375Zm55.295-15.993a.822.822,0,0,1-.446-.017,50.587,50.587,0,0,0-6.564-1.653.823.823,0,0,1,.294-1.619,52.338,52.338,0,0,1,6.778,1.707.823.823,0,0,1-.062,1.582Zm-41.56,4.382a.822.822,0,0,1-.6-1.511,52.075,52.075,0,0,1,6.272-3.089.823.823,0,0,1,.626,1.521,50.36,50.36,0,0,0-6.075,2.991A.83.83,0,0,1,2806.951,620.763Zm23.75-6.851a.813.813,0,0,1-.162.022,51,51,0,0,0-6.734.707.823.823,0,0,1-.951-.67.841.841,0,0,1,.67-.951,52.7,52.7,0,0,1,6.953-.73.822.822,0,0,1,.224,1.621Z" transform="translate(-2784.622 -612.29)" fill="#eac4f9"/>
          <path id="Path_13" data-name="Path 13" d="M3230.949,788.532a.822.822,0,0,1-.985-.583c-.285-1.038-.6-2.078-.953-3.091a.822.822,0,0,1,.511-1.045.8.8,0,0,1,1.044.51c.361,1.047.691,2.121.984,3.193a.823.823,0,0,1-.577,1.01Z" transform="translate(-3133.486 -749.251)" fill="#eac4f9"/>
        </g>
        <g id="Group_6" data-name="Group 6" transform="translate(0 62.483)">
          <path id="Path_14" data-name="Path 14" d="M3205.026,992.4a.823.823,0,0,1-.889-1.237c.572-.91,1.121-1.851,1.631-2.794a.823.823,0,0,1,1.447.783c-.527.974-1.094,1.945-1.685,2.886A.823.823,0,0,1,3205.026,992.4Z" transform="translate(-3110.546 -974.82)" fill="#eac4f9"/>
          <path id="Path_15" data-name="Path 15" d="M2826.641,1014.884a.822.822,0,0,1-.448-1.581,50.066,50.066,0,0,0,6.178-2.488.823.823,0,0,1,.715,1.482,51.91,51.91,0,0,1-6.381,2.57Zm-10.745,2.283a.84.84,0,0,1-.11.019,52.58,52.58,0,0,1-6.872.251.822.822,0,1,1,.048-1.644,50.87,50.87,0,0,0,6.656-.244.822.822,0,0,1,.277,1.617Zm26.347-10.625a.822.822,0,0,1-.7-1.446,51.092,51.092,0,0,0,4.959-4.449.822.822,0,1,1,1.176,1.149,52.69,52.69,0,0,1-5.119,4.594A.826.826,0,0,1,2842.244,1006.543Zm-44,9.385a.822.822,0,0,1-.39,0,52.007,52.007,0,0,1-6.55-2.094.822.822,0,1,1,.6-1.53,50.221,50.221,0,0,0,6.342,2.027.823.823,0,0,1-.006,1.6Zm-16.169-7.173a.821.821,0,0,1-.652-.117,52.455,52.455,0,0,1-5.44-4.2.822.822,0,1,1,1.089-1.232,50.828,50.828,0,0,0,5.269,4.072.822.822,0,0,1-.266,1.481Zm-12.773-12.243a.821.821,0,0,1-.855-.312,51.862,51.862,0,0,1-3.7-5.8.823.823,0,1,1,1.443-.79,50.173,50.173,0,0,0,3.582,5.614.823.823,0,0,1-.175,1.15A.833.833,0,0,1,2769.306,996.512Z" transform="translate(-2759.608 -975.814)" fill="#eac4f9"/>
          <path id="Path_16" data-name="Path 16" d="M2741.434,927.565a.822.822,0,0,1-.981-.569c-.311-1.066-.592-2.154-.834-3.234a.823.823,0,0,1,.61-.98l.013,0a.823.823,0,0,1,.982.622c.235,1.046.507,2.1.808,3.133a.823.823,0,0,1-.559,1.02Z" transform="translate(-2739.598 -922.759)" fill="#eac4f9"/>
        </g>
        <g id="Group_7" data-name="Group 7" transform="translate(11.636 12.272)">
          <path id="Path_17" data-name="Path 17" d="M2797.414,716.777a.615.615,0,0,0,.407.586l7.05,2.524a32.6,32.6,0,0,0,3.925,9.812l-3.356,6.688a.614.614,0,0,0,.11.706l6.275,6.426a.615.615,0,0,0,.7.126l6.766-3.2a32.626,32.626,0,0,0,9.717,4.156l2.357,7.107a.615.615,0,0,0,.577.422l8.981.106a.616.616,0,0,0,.587-.408l2.524-7.05a32.613,32.613,0,0,0,9.812-3.925l6.688,3.357a.615.615,0,0,0,.706-.11l6.426-6.276a.616.616,0,0,0,.126-.7l-3.2-6.766a32.6,32.6,0,0,0,4.156-9.716l7.108-2.357a.615.615,0,0,0,.421-.577l.106-8.981a.616.616,0,0,0-.408-.587l-7.049-2.524A32.613,32.613,0,0,0,2865,695.8l3.356-6.688a.613.613,0,0,0-.11-.706l-6.275-6.426a.616.616,0,0,0-.7-.126l-6.766,3.2a32.608,32.608,0,0,0-9.717-4.156l-2.357-7.107a.615.615,0,0,0-.577-.421l-8.981-.106a.615.615,0,0,0-.586.408l-2.525,7.05a32.631,32.631,0,0,0-9.812,3.925l-6.688-3.357a.615.615,0,0,0-.706.11l-6.426,6.276a.616.616,0,0,0-.126.7l3.2,6.766a32.619,32.619,0,0,0-4.156,9.716l-7.107,2.357a.615.615,0,0,0-.422.577Z" transform="translate(-2797.414 -673.266)" fill="url(#linear-gradient-3)"/>
          <path id="Path_18" data-name="Path 18" d="M2959.212,841.883l-.008,0a9.1,9.1,0,1,1,.008,0Zm-3.734-15.5a6.74,6.74,0,0,0,3.15,13.107h.006a6.74,6.74,0,1,0-3.156-13.106Z" transform="translate(-2917.569 -793.444)" fill="#fff" opacity="0.47"/>
          <path id="Path_19" data-name="Path 19" d="M2912.051,800.746a22.928,22.928,0,0,1-24.507-9.613q-.154-.231-.3-.465l2.089-1.313a20.616,20.616,0,0,0,2.7,3.417h0a20.443,20.443,0,0,0,3.677,2.984l.011.006.02.013a20.5,20.5,0,0,0,19.383,1.319,20.247,20.247,0,0,0,4.555-2.849c.046-.037.091-.074.135-.113l.109-.093c.093-.079.186-.159.277-.241q.374-.332.735-.684a20.3,20.3,0,0,0,6.158-14.381,20.571,20.571,0,0,0-.569-5.068,20.447,20.447,0,0,0-39.635-.391l-2.386-.628a22.912,22.912,0,1,1,27.552,28.1Z" transform="translate(-2866.973 -739.017)" fill="#fff" opacity="0.47"/>
        </g>
      </g>
    </g>
    <g id="Group_10" data-name="Group 10" transform="translate(458.821 441.356)">
      <path id="Path_20" data-name="Path 20" d="M465.817,447.655c-.6-2.572,3.014-4.282,5.229-2.485,22.5,18.243,76.551,72.873,63.08,168.342-16.9,119.78,11.994,163.487,47.962,190.147,0,0-49.4-12.538-80.474-56.887C425.312,637.883,476.56,493.386,465.817,447.655Z" transform="translate(-458.821 -444.427)" fill="url(#linear-gradient-4)"/>
      <path id="Path_21" data-name="Path 21" d="M578.6,643.072c2.814,13.335,5.323,26.71,7.261,40.146q3.03,20.136,4.627,40.389c1,13.5,1.7,27.005,1.745,40.521.11,13.515-.451,27.018-1.071,40.575-.531,13.552-1.155,27.2-.163,40.947a121.382,121.382,0,0,0,9.593,40.527c1.432,3.233,2.938,6.456,4.65,9.57,1.645,3.143,3.452,6.224,5.321,9.275a146.421,146.421,0,0,0,12.761,17.555,160.989,160.989,0,0,0,33.6,29.407,3.364,3.364,0,0,0,4.254-.483,2.384,2.384,0,0,0-.489-3.625l-.009-.006c-3.005-2.111-5.979-4.249-8.832-6.494-1.448-1.1-2.835-2.259-4.248-3.392-1.361-1.178-2.776-2.31-4.093-3.524a146.026,146.026,0,0,1-36.665-50.3,118.441,118.441,0,0,1-6.361-19.1,130.4,130.4,0,0,1-3.069-19.782c-1.081-13.342-.593-26.856-.175-40.41.4-13.557.69-27.184.332-40.8q-.236-10.211-.9-20.407c-.2-3.4-.471-6.794-.737-10.189q-.456-5.089-.988-10.171-2.191-20.324-5.829-40.486c-2.5-13.422-5.42-26.783-8.928-40.024a.825.825,0,0,0-.975-.529A.714.714,0,0,0,578.6,643.072Z" transform="translate(-554.486 -602.432)" fill="#fff" style="mix-blend-mode: soft-light;isolation: isolate"/>
    </g>
    <g id="Group_12" data-name="Group 12" transform="translate(496.151 456.023)">
      <g id="Group_11" data-name="Group 11">
        <path id="Path_22" data-name="Path 22" d="M668.2,777.727a5.663,5.663,0,0,1-9.269-1.578c-9.156-20.214-29.876-79.707,4.343-148.246,28.9-57.879,39.065-92.008,42.608-107.822a3.551,3.551,0,0,1,6.715-.653C727.862,554.018,768.157,671.676,668.2,777.727Z" transform="translate(-644.307 -517.307)" fill="url(#linear-gradient-5)"/>
        <path id="Path_23" data-name="Path 23" d="M730.81,1070.311a1.546,1.546,0,0,1-.3.024,1.57,1.57,0,0,1-1.546-1.594c.015-.983,1.928-99.236,38.471-181.527a1.57,1.57,0,1,1,2.87,1.275c-36.277,81.692-38.187,179.324-38.2,180.3A1.57,1.57,0,0,1,730.81,1070.311Z" transform="translate(-711.924 -812.024)" fill="#fff" style="mix-blend-mode: soft-light;isolation: isolate"/>
      </g>
    </g>
    <g id="Group_15" data-name="Group 15" transform="translate(468.115 522.359)">
      <g id="Group_13" data-name="Group 13">
        <path id="Path_24" data-name="Path 24" d="M1622.349,2293.016l-11.6,104.012H1745.3l-17.526-104.012Z" transform="translate(-1388.216 -2001.984)" fill="url(#linear-gradient-6)"/>
        <path id="Path_25" data-name="Path 25" d="M505,874.253V1119.38a37.186,37.186,0,0,0,36.227,37.175c89.532,2.308,402.673,7.906,487.9,6.65a27.362,27.362,0,0,0,26.938-26.582c1.643-56.946,4.313-193.883-5.565-257.458a28.157,28.157,0,0,0-26.923-23.832c-75.017-2.4-406.966-10.02-492.156-8.107A27.029,27.029,0,0,0,505,874.253Z" transform="translate(-505.003 -846.921)" fill="url(#linear-gradient-7)"/>
        <path id="Path_26" data-name="Path 26" d="M581.429,910.856v232.888a21.545,21.545,0,0,0,21.223,21.542l475.264,5.872a20.968,20.968,0,0,0,21.281-20.888l.8-230.807a15.335,15.335,0,0,0-14.962-15.387l-486.582-9.83A16.616,16.616,0,0,0,581.429,910.856Z" transform="translate(-566.048 -884.718)" fill="url(#linear-gradient-8)"/>
        <path id="Path_27" data-name="Path 27" d="M1099.745,2276.833h-.014l-521.346-8.883a.764.764,0,0,1,.026-1.528l521.346,8.883a.764.764,0,0,1-.012,1.528Z" transform="translate(-563.018 -1980.742)" fill="#fff" opacity="0.65"/>
        <path id="Path_28" data-name="Path 28" d="M1608.04,2799.864H1411.113c-5.35,0-9.367-3.809-8.333-7.9l2.527-9.993c.76-3.006,4.066-5.212,7.993-5.334l189.845-5.924c4.1-.128,7.736,2.049,8.63,5.173l4.555,15.917C1617.513,2795.938,1613.476,2799.864,1608.04,2799.864Z" transform="translate(-1221.969 -2383.539)" fill="url(#linear-gradient-9)"/>
      </g>
      <g id="Group_14" data-name="Group 14" transform="translate(28.231 51.389)">
        <path id="Path_29" data-name="Path 29" d="M1633.231,1149.281l-45.815-.3a1.579,1.579,0,0,1-1.589-1.571l.046-6.17a1.58,1.58,0,0,1,1.61-1.548l45.815.3a1.58,1.58,0,0,1,1.589,1.571l-.047,6.17A1.581,1.581,0,0,1,1633.231,1149.281Z" transform="translate(-1396.538 -1132.161)" fill="#fff" opacity="0.53"/>
        <path id="Path_30" data-name="Path 30" d="M1973.839,1151.518l-91.715-.6a2.511,2.511,0,0,1-2.527-2.5l.033-4.331a2.513,2.513,0,0,1,2.561-2.461l91.715.6a2.511,2.511,0,0,1,2.527,2.5l-.033,4.331A2.513,2.513,0,0,1,1973.839,1151.518Z" transform="translate(-1631.186 -1133.71)" fill="#fff" opacity="0.53"/>
        <path id="Path_31" data-name="Path 31" d="M1634.575,1230.494l-45.815-.3a1.579,1.579,0,0,1-1.589-1.571l.046-6.17a1.581,1.581,0,0,1,1.611-1.548l45.814.3a1.579,1.579,0,0,1,1.589,1.571l-.046,6.17A1.581,1.581,0,0,1,1634.575,1230.494Z" transform="translate(-1397.612 -1197.03)" fill="#fff" opacity="0.53"/>
        <path id="Path_32" data-name="Path 32" d="M2188.393,1234.117l-136.723-.888a2.512,2.512,0,0,1-2.527-2.5l.033-4.331a2.513,2.513,0,0,1,2.561-2.461l136.723.888a2.51,2.51,0,0,1,2.526,2.5l-.032,4.331A2.513,2.513,0,0,1,2188.393,1234.117Z" transform="translate(-1766.611 -1199.452)" fill="#fff" opacity="0.53"/>
        <path id="Path_33" data-name="Path 33" d="M1633.785,1311.576l-45.815-.3a1.579,1.579,0,0,1-1.589-1.571l.046-6.17a1.581,1.581,0,0,1,1.611-1.548l45.814.3a1.579,1.579,0,0,1,1.589,1.571l-.046,6.17A1.581,1.581,0,0,1,1633.785,1311.576Z" transform="translate(-1396.981 -1261.794)" fill="#fff" opacity="0.53"/>
        <path id="Path_34" data-name="Path 34" d="M2316.987,1316.04l-179.7-1.168a2.51,2.51,0,0,1-2.526-2.5l.032-4.331a2.513,2.513,0,0,1,2.56-2.461l179.7,1.167a2.511,2.511,0,0,1,2.527,2.5l-.033,4.331A2.512,2.512,0,0,1,2316.987,1316.04Z" transform="translate(-1834.996 -1264.664)" fill="#fff" opacity="0.53"/>
        <path id="Path_35" data-name="Path 35" d="M1635.129,1392.789l-45.814-.3a1.579,1.579,0,0,1-1.589-1.571l.047-6.17a1.58,1.58,0,0,1,1.61-1.548l45.815.3a1.58,1.58,0,0,1,1.589,1.571l-.046,6.17A1.581,1.581,0,0,1,1635.129,1392.789Z" transform="translate(-1398.054 -1326.662)" fill="#fff" opacity="0.53"/>
        <path id="Path_36" data-name="Path 36" d="M2321.2,1397.272l-179.7-1.168a2.511,2.511,0,0,1-2.526-2.5l.033-4.331a2.512,2.512,0,0,1,2.56-2.461l179.7,1.168a2.511,2.511,0,0,1,2.527,2.5l-.032,4.331A2.514,2.514,0,0,1,2321.2,1397.272Z" transform="translate(-1838.361 -1329.548)" fill="#fff" opacity="0.53"/>
        <path id="Path_37" data-name="Path 37" d="M1633.755,1477.041l-45.815-.3a1.579,1.579,0,0,1-1.589-1.571l.047-6.17a1.58,1.58,0,0,1,1.611-1.548l45.815.3a1.579,1.579,0,0,1,1.589,1.571l-.047,6.17A1.581,1.581,0,0,1,1633.755,1477.041Z" transform="translate(-1396.956 -1393.958)" fill="#fff" opacity="0.53"/>
        <path id="Path_38" data-name="Path 38" d="M2318.743,1481.515l-179.7-1.168a2.51,2.51,0,0,1-2.526-2.5l.033-4.331a2.513,2.513,0,0,1,2.56-2.461l179.7,1.168a2.511,2.511,0,0,1,2.526,2.5l-.033,4.331A2.513,2.513,0,0,1,2318.743,1481.515Z" transform="translate(-1836.399 -1396.838)" fill="#fff" opacity="0.53"/>
        <path id="Path_39" data-name="Path 39" d="M1635.1,1558.254l-45.815-.3a1.579,1.579,0,0,1-1.589-1.571l.046-6.17a1.581,1.581,0,0,1,1.611-1.548l45.815.3a1.58,1.58,0,0,1,1.589,1.571l-.046,6.17A1.581,1.581,0,0,1,1635.1,1558.254Z" transform="translate(-1398.03 -1458.827)" fill="#fff" opacity="0.53"/>
        <path id="Path_40" data-name="Path 40" d="M1987.164,1560.565l-108.127-.7a2.51,2.51,0,0,1-2.526-2.5l.032-4.331a2.513,2.513,0,0,1,2.561-2.461l108.127.7a2.51,2.51,0,0,1,2.526,2.5l-.033,4.331A2.513,2.513,0,0,1,1987.164,1560.565Z" transform="translate(-1628.72 -1460.35)" fill="#fff" opacity="0.53"/>
        <path id="Path_41" data-name="Path 41" d="M1634.309,1639.335l-45.815-.3a1.579,1.579,0,0,1-1.589-1.571l.046-6.17a1.581,1.581,0,0,1,1.611-1.548l45.815.3a1.579,1.579,0,0,1,1.589,1.571l-.046,6.17A1.581,1.581,0,0,1,1634.309,1639.335Z" transform="translate(-1397.399 -1523.59)" fill="#fff" opacity="0.53"/>
        <path id="Path_42" data-name="Path 42" d="M2141.266,1642.654l-136.06-.884a2.511,2.511,0,0,1-2.527-2.5l.033-4.331a2.513,2.513,0,0,1,2.561-2.461l136.06.884a2.511,2.511,0,0,1,2.526,2.5l-.033,4.331A2.513,2.513,0,0,1,2141.266,1642.654Z" transform="translate(-1729.498 -1525.773)" fill="#fff" opacity="0.53"/>
        <path id="Path_43" data-name="Path 43" d="M1635.653,1720.549l-45.815-.3a1.579,1.579,0,0,1-1.589-1.571l.047-6.17a1.581,1.581,0,0,1,1.611-1.548l45.815.3a1.579,1.579,0,0,1,1.589,1.571l-.046,6.17A1.581,1.581,0,0,1,1635.653,1720.549Z" transform="translate(-1398.473 -1588.459)" fill="#fff" opacity="0.53"/>
        <path id="Path_44" data-name="Path 44" d="M2298.049,1724.877l-185.977-1.208a2.511,2.511,0,0,1-2.527-2.5l.033-4.331a2.512,2.512,0,0,1,2.56-2.461l185.977,1.208a2.511,2.511,0,0,1,2.527,2.5l-.033,4.331A2.513,2.513,0,0,1,2298.049,1724.877Z" transform="translate(-1814.856 -1591.19)" fill="#fff" opacity="0.53"/>
        <path id="Path_45" data-name="Path 45" d="M1629.546,1962.838l-45.814-.3a1.579,1.579,0,0,1-1.59-1.571l.047-6.17a1.58,1.58,0,0,1,1.61-1.548l45.815.3a1.579,1.579,0,0,1,1.589,1.571l-.046,6.17A1.581,1.581,0,0,1,1629.546,1962.838Z" transform="translate(-1393.594 -1781.987)" fill="#fff" opacity="0.53"/>
        <path id="Path_46" data-name="Path 46" d="M1981.611,1965.149l-108.127-.7a2.511,2.511,0,0,1-2.526-2.5l.032-4.331a2.514,2.514,0,0,1,2.561-2.461l108.127.7a2.511,2.511,0,0,1,2.526,2.5l-.033,4.331A2.513,2.513,0,0,1,1981.611,1965.149Z" transform="translate(-1624.285 -1783.51)" fill="#fff" opacity="0.53"/>
        <path id="Path_47" data-name="Path 47" d="M1628.756,2043.919l-45.814-.3a1.58,1.58,0,0,1-1.589-1.571l.047-6.17a1.581,1.581,0,0,1,1.61-1.548l45.815.3a1.579,1.579,0,0,1,1.589,1.571l-.046,6.17A1.581,1.581,0,0,1,1628.756,2043.919Z" transform="translate(-1392.964 -1846.75)" fill="#fff" opacity="0.53"/>
        <path id="Path_48" data-name="Path 48" d="M2135.336,2047.235l-136.06-.884a2.511,2.511,0,0,1-2.527-2.5l.033-4.331a2.513,2.513,0,0,1,2.56-2.461l136.06.885a2.511,2.511,0,0,1,2.527,2.5l-.033,4.331A2.513,2.513,0,0,1,2135.336,2047.235Z" transform="translate(-1724.761 -1848.93)" fill="#fff" opacity="0.53"/>
        <path id="Path_49" data-name="Path 49" d="M1630.1,2125.133l-45.815-.3a1.58,1.58,0,0,1-1.589-1.571l.047-6.17a1.58,1.58,0,0,1,1.611-1.548l45.815.3a1.58,1.58,0,0,1,1.589,1.571l-.047,6.17A1.581,1.581,0,0,1,1630.1,2125.133Z" transform="translate(-1394.038 -1911.62)" fill="#fff" opacity="0.53"/>
        <path id="Path_50" data-name="Path 50" d="M2292.119,2129.458l-185.978-1.209a2.511,2.511,0,0,1-2.526-2.5l.033-4.331a2.513,2.513,0,0,1,2.561-2.461l185.977,1.209a2.511,2.511,0,0,1,2.527,2.5l-.033,4.331A2.513,2.513,0,0,1,2292.119,2129.458Z" transform="translate(-1810.119 -1914.347)" fill="#fff" opacity="0.53"/>
        <path id="Path_51" data-name="Path 51" d="M1632.183,1803.115l-45.814-.3a1.579,1.579,0,0,1-1.589-1.571l.047-6.17a1.58,1.58,0,0,1,1.61-1.548l45.815.3a1.58,1.58,0,0,1,1.589,1.571l-.047,6.17A1.581,1.581,0,0,1,1632.183,1803.115Z" transform="translate(-1395.701 -1654.409)" fill="#fff" opacity="0.53"/>
        <path id="Path_52" data-name="Path 52" d="M2290.167,1807.414l-185.978-1.208a2.511,2.511,0,0,1-2.526-2.5l.033-4.331a2.513,2.513,0,0,1,2.56-2.461l185.977,1.208a2.511,2.511,0,0,1,2.527,2.5l-.033,4.331A2.513,2.513,0,0,1,2290.167,1807.414Z" transform="translate(-1808.561 -1657.116)" fill="#fff" opacity="0.53"/>
        <path id="Path_53" data-name="Path 53" d="M1633.528,1884.328l-45.815-.3a1.58,1.58,0,0,1-1.589-1.571l.047-6.17a1.581,1.581,0,0,1,1.611-1.548l45.815.3a1.58,1.58,0,0,1,1.589,1.571l-.047,6.17A1.581,1.581,0,0,1,1633.528,1884.328Z" transform="translate(-1396.775 -1719.277)" fill="#fff" opacity="0.53"/>
        <path id="Path_54" data-name="Path 54" d="M2294.544,1888.647l-185.978-1.208a2.511,2.511,0,0,1-2.526-2.5l.033-4.331a2.513,2.513,0,0,1,2.56-2.461l185.978,1.209a2.511,2.511,0,0,1,2.526,2.5l-.032,4.331A2.514,2.514,0,0,1,2294.544,1888.647Z" transform="translate(-1812.057 -1722)" fill="#fff" opacity="0.53"/>
        <path id="Path_55" data-name="Path 55" d="M815.771,1210.468H659.648c-6.089,0-11.025-2.124-11.025-4.744v-98.716c0-2.655,5.064-4.793,11.233-4.743l156.739,1.272c6.019.049,10.833,2.166,10.817,4.755l-.615,97.444C826.779,1208.352,821.848,1210.468,815.771,1210.468Z" transform="translate(-647.95 -1102.265)" fill="#fff" opacity="0.35"/>
        <path id="Path_56" data-name="Path 56" d="M812.425,1781.582H656.3c-6.089,0-11.025-2.124-11.025-4.743v-98.717c0-2.655,5.063-4.793,11.233-4.743l156.738,1.272c6.018.049,10.833,2.166,10.817,4.756l-.616,97.444C823.433,1779.466,818.5,1781.582,812.425,1781.582Z" transform="translate(-645.277 -1558.44)" fill="#fff" opacity="0.35"/>
      </g>
      <path id="Path_57" data-name="Path 57" d="M1100.07,928.471l.031-9.011a15.333,15.333,0,0,0-14.962-15.386l-486.568-9.829a16.6,16.6,0,0,0-17.006,16.611v17.616Z" transform="translate(-566.157 -884.716)" fill="url(#linear-gradient-10)"/>
      <circle id="Ellipse_5" data-name="Ellipse 5" cx="8.097" cy="8.097" r="8.097" transform="translate(28.249 27.56) rotate(-45)" fill="#fff" opacity="0.35"/>
      <circle id="Ellipse_6" data-name="Ellipse 6" cx="8.097" cy="8.097" r="8.097" transform="translate(79.217 33.58) rotate(-76.717)" fill="#fff" opacity="0.35"/>
      <circle id="Ellipse_7" data-name="Ellipse 7" cx="8.097" cy="8.097" r="8.097" transform="matrix(0.23, -0.973, 0.973, 0.23, 54.251, 33.58)" fill="#fff" opacity="0.35"/>
    </g>
    <g id="Group_16" data-name="Group 16" transform="translate(463.831 896.555)">
      <path id="Path_58" data-name="Path 58" d="M929.032,2815.545c-.755,0-1.367-.38-1.367-.849V2713.279c0-.468.612-.848,1.367-.848s1.367.38,1.367.848V2814.7C930.4,2815.165,929.787,2815.545,929.032,2815.545Z" transform="translate(-838.318 -2711.186)" fill="url(#linear-gradient-11)"/>
      <path id="Path_59" data-name="Path 59" d="M718.162,2815.545c-.755,0-1.367-.38-1.367-.849V2713.279c0-.468.612-.848,1.367-.848s1.367.38,1.367.848V2814.7C719.528,2815.165,718.917,2815.545,718.162,2815.545Z" transform="translate(-669.887 -2711.186)" fill="url(#linear-gradient-12)"/>
      <path id="Path_60" data-name="Path 60" d="M483.824,2814.464a1.367,1.367,0,1,0,2.516,1.07l44.305-104.216c-.95-.044-1.9-.148-2.851-.282Z" transform="translate(-483.715 -2710.072)" fill="url(#linear-gradient-13)"/>
      <path id="Path_61" data-name="Path 61" d="M698.328,2811.4a1.367,1.367,0,1,0,2.516,1.069l44.681-105.1q-1.445-.1-2.9-.168Z" transform="translate(-655.049 -2707.008)" fill="url(#linear-gradient-14)"/>
      <path id="Path_62" data-name="Path 62" d="M587.531,2709.665h-91.8a1.708,1.708,0,0,1-1.708-1.708h0a1.708,1.708,0,0,1,1.708-1.708h91.8a1.708,1.708,0,0,1,1.708,1.708h0A1.708,1.708,0,0,1,587.531,2709.665Z" transform="translate(-491.946 -2706.248)" fill="url(#linear-gradient-15)"/>
      <rect id="Rectangle_3" data-name="Rectangle 3" width="43.298" height="2.733" transform="translate(33.411 28.172)" fill="url(#linear-gradient-16)"/>
      <path id="Path_63" data-name="Path 63" d="M630.644,2983.339h-43.3a1.367,1.367,0,1,1,0-2.733h43.3a1.367,1.367,0,0,1,0,2.733Z" transform="translate(-565.399 -2925.391)" fill="url(#linear-gradient-17)"/>
      <path id="Path_64" data-name="Path 64" d="M572.556,3114.353h-43.3a1.366,1.366,0,1,1,0-2.733h43.3a1.366,1.366,0,1,1,0,2.733Z" transform="translate(-519.001 -3030.037)" fill="url(#linear-gradient-18)"/>
    </g>
    <g id="Group_28" data-name="Group 28" transform="translate(651.842 715.453)">
      <g id="Group_20" data-name="Group 20" transform="translate(154.981 0)">
        <g id="Group_17" data-name="Group 17" transform="translate(34.468 123.612)">
          <path id="Path_65" data-name="Path 65" d="M2389.761,3065.88a68.691,68.691,0,0,1,.826,7.192,3.1,3.1,0,0,1-2.792,3.269c-5.775.56-18.921,1.595-27.315.383a1.409,1.409,0,0,1-.773-2.424c3.461-3.224,11.82-9.5,25.577-10.868Z" transform="translate(-2359.259 -2934.059)" fill="url(#linear-gradient-19)"/>
          <path id="Path_66" data-name="Path 66" d="M2485.519,3026.491l-2.92,7.157a2.384,2.384,0,0,1-2.449,1.48,13,13,0,0,1-2.385-.462,3.133,3.133,0,0,1-2.084-3.9l2.2-7.372Z" transform="translate(-2452.145 -2902.081)" fill="url(#linear-gradient-20)"/>
          <path id="Path_67" data-name="Path 67" d="M2740.264,3103.92s-5.847,4.892-8.125,11.167a2.668,2.668,0,0,0,2.534,3.544h12.032a2.837,2.837,0,0,0,2.8-3.318C2748.743,3110.979,2746.533,3103.938,2740.264,3103.92Z" transform="translate(-2656.969 -2966.397)" fill="url(#linear-gradient-21)"/>
          <path id="Path_68" data-name="Path 68" d="M2773.545,3068.744s-1.181,5.228-2.089,8.682a1.1,1.1,0,0,1-1.445.753,10.074,10.074,0,0,0-4.379-.794.852.852,0,0,1-.939-.85l-.113-8.683Z" transform="translate(-2683.007 -2937.589)" fill="url(#linear-gradient-22)"/>
          <path id="Path_69" data-name="Path 69" d="M2513.46,2434.117l-35.565,108.5s6.822,4.468,10.071,4.281l42.243-87.2s7.392,53.727,3.81,92.3l12.1.923s19.674-98.572,4.772-132.333Z" transform="translate(-2454.02 -2420.591)" fill="url(#linear-gradient-23)"/>
          <path id="Path_70" data-name="Path 70" d="M2729.858,2564.057l.043,0a.345.345,0,0,0,.3-.385l-1.38-10.954a.344.344,0,0,0-.684.085l1.38,10.955A.344.344,0,0,0,2729.858,2564.057Z" transform="translate(-2653.897 -2525.884)" fill="url(#linear-gradient-24)"/>
        </g>
        <path id="Path_71" data-name="Path 71" d="M2484.066,2013.409s28.814,2.559,24.739,23.089c0,0,15.927,29.974,23.375,65.283a2.077,2.077,0,0,1-1.685,2.468l-47.985,8.216a2.584,2.584,0,0,1-2.937-1.9l-11.465-44.311-4.468,20.6-14.2-3.7,11.951-60.538S2463.061,2013.789,2484.066,2013.409Z" transform="translate(-2396.825 -1971.743)" fill="url(#linear-gradient-25)"/>
        <path id="Path_72" data-name="Path 72" d="M2523.676,2190.42a.379.379,0,0,0,.077-.008.359.359,0,0,0,.273-.425l-4-18.366a.357.357,0,1,0-.7.152l4,18.366A.357.357,0,0,0,2523.676,2190.42Z" transform="translate(-2452.638 -2097.89)" fill="url(#linear-gradient-26)"/>
        <path id="Path_73" data-name="Path 73" d="M2515.958,2412.282a6.85,6.85,0,0,1,4.955-.645l3.338.831a1.209,1.209,0,0,0,1.495-1.039l3.455-30.751c4.32,2.052,10.552,1.807,12.607,1.656l-7.952,36.253H2506.03Z" transform="translate(-2442.024 -2265.099)" fill="url(#linear-gradient-27)"/>
        <path id="Path_74" data-name="Path 74" d="M2187.991,2123.294l.841-2.795a5.531,5.531,0,0,1,3.231-3.537l15.212-6.117s.23-1.951-3.214-3.277-2.639-5.182-2.639-5.182,4.7,2.146,11.592,5.55a16.119,16.119,0,0,1,7.321,7.971l34.47,42.021-4.047,2.781a10.8,10.8,0,0,1-15.665-3.844l-18.673-35.807A69.609,69.609,0,0,1,2187.991,2123.294Z" transform="translate(-2187.991 -2042.814)" fill="url(#linear-gradient-28)"/>
        <g id="Group_19" data-name="Group 19" transform="translate(44.657)">
          <path id="Path_75" data-name="Path 75" d="M2538.671,1914.849l8.862,24.8s-7.847,6.135-13.574,4.061l-4.466-14.218S2532.9,1912.118,2538.671,1914.849Z" transform="translate(-2505.422 -1892.787)" fill="url(#linear-gradient-29)"/>
          <g id="Group_18" data-name="Group 18">
            <path id="Path_76" data-name="Path 76" d="M2443.672,1852.159c0,.383,8.537,24.167,8.537,24.167l13.477-5.163-4.742-23.745S2443.672,1845.761,2443.672,1852.159Z" transform="translate(-2436.872 -1839.005)" fill="url(#linear-gradient-30)"/>
            <path id="Path_77" data-name="Path 77" d="M2431.592,1820.577l3.475,12.3a1.758,1.758,0,0,1,.067.48c0,1-.247,4.457-3.765,3.988-3.192-.427-6.111-.768-7.967.106a1.785,1.785,0,0,0-.92,2.219,77.2,77.2,0,0,0,4.854,10.956,1.782,1.782,0,0,0,2.292.733,57.552,57.552,0,0,0,11.556-6.8,1.787,1.787,0,0,0,.632-1.715c-.59-3.147-2.35-12.721-2.428-15.464-.073-2.575,2.817-4.541,4.088-5.28a1.755,1.755,0,0,0,.827-1.11c.4-1.657.738-5.409-4.046-6.235a1.789,1.789,0,0,1-1.451-2.127c.405-1.982.275-4.9-3.489-5.974-3.826-1.092-6.234,1.211-7.458,2.977a1.788,1.788,0,0,1-2.215.591,1.413,1.413,0,0,0-1.583.283,1.759,1.759,0,0,1-2.574-.391,5.333,5.333,0,0,0-6.574-2.171c-6.089,1.97-5.8,8.99-3.566,12.807s8.712,1.305,11.78-1.224c2.333-1.923,5.883-.773,7.452-.111A1.769,1.769,0,0,1,2431.592,1820.577Z" transform="translate(-2409.883 -1806.379)" fill="url(#linear-gradient-31)"/>
            <path id="Path_78" data-name="Path 78" d="M2554.47,1892.672s-3.6-6.817-1.22-8.957,6.42-1.791,6.312,3.54C2559.426,1893.885,2554.47,1892.672,2554.47,1892.672Z" transform="translate(-2523.746 -1867.17)" fill="url(#linear-gradient-32)"/>
          </g>
        </g>
        <path id="Path_79" data-name="Path 79" d="M2622.652,2194.562a34.524,34.524,0,0,0,3.522-.166l.256-.029,10.492-48.918a.357.357,0,0,0-.7-.15l-10.384,48.41c-1.561.137-9.9.691-14.3-2.428l9.089-42.5-1.9-3.575a.357.357,0,1,0-.631.335l1.775,3.346-9.131,42.695.182.137C2614.107,2194.11,2619.23,2194.562,2622.652,2194.562Z" transform="translate(-2525.664 -2076.865)" fill="url(#linear-gradient-33)"/>
      </g>
      <g id="Group_21" data-name="Group 21" transform="translate(3.053 165.57)">
        <path id="Path_80" data-name="Path 80" d="M2422.256,2743.539a1.915,1.915,0,0,0,.815-.184,2.338,2.338,0,0,0,1.082-2.963l-43.335-109.953a2,2,0,0,0-2.714-1.18,2.337,2.337,0,0,0-1.082,2.963l43.334,109.954A2.069,2.069,0,0,0,2422.256,2743.539Z" transform="translate(-2186.917 -2629.074)" fill="url(#linear-gradient-34)"/>
        <path id="Path_81" data-name="Path 81" d="M2351.682,2743.538a2.068,2.068,0,0,0,1.9-1.365l43.335-109.954a2.337,2.337,0,0,0-1.082-2.962,2.005,2.005,0,0,0-2.715,1.18l-43.334,109.953a2.338,2.338,0,0,0,1.082,2.963A1.919,1.919,0,0,0,2351.682,2743.538Z" transform="translate(-2165.16 -2629.073)" fill="url(#linear-gradient-35)"/>
        <path id="Path_82" data-name="Path 82" d="M1505.718,2743.539a1.916,1.916,0,0,0,.815-.184,2.338,2.338,0,0,0,1.082-2.963l-43.334-109.953a2.005,2.005,0,0,0-2.714-1.18,2.337,2.337,0,0,0-1.082,2.963l43.334,109.954A2.07,2.07,0,0,0,1505.718,2743.539Z" transform="translate(-1454.835 -2629.074)" fill="url(#linear-gradient-36)"/>
        <path id="Path_83" data-name="Path 83" d="M1435.146,2743.538a2.069,2.069,0,0,0,1.9-1.365l43.334-109.954a2.336,2.336,0,0,0-1.081-2.962,2.005,2.005,0,0,0-2.715,1.18l-43.334,109.953a2.338,2.338,0,0,0,1.081,2.963A1.919,1.919,0,0,0,1435.146,2743.538Z" transform="translate(-1433.08 -2629.073)" fill="url(#linear-gradient-37)"/>
      </g>
      <g id="Group_22" data-name="Group 22" transform="translate(51.337 193.527)">
        <rect id="Rectangle_4" data-name="Rectangle 4" width="5.124" height="55.408" transform="translate(31.659 67.823) rotate(180)" fill="url(#linear-gradient-38)"/>
        <path id="Rectangle_5" data-name="Rectangle 5" d="M0,0H44.875a0,0,0,0,1,0,0V.6a2.739,2.739,0,0,1-2.739,2.739H2.739A2.739,2.739,0,0,1,0,.6V0A0,0,0,0,1,0,0Z" transform="translate(51.535 68.892) rotate(180)" fill="url(#linear-gradient-39)"/>
        <rect id="Rectangle_6" data-name="Rectangle 6" width="56.422" height="16.002" rx="8.001" fill="url(#linear-gradient-40)"/>
      </g>
      <g id="Group_23" data-name="Group 23" transform="translate(45.567 158.591)">
        <path id="Path_84" data-name="Path 84" d="M1932.734,2646.1a44.6,44.6,0,0,1,16.173,6.9,4.269,4.269,0,0,1,1.883,4.078c-1.025,8.119-5.239,34.4-19.136,60.064a6.465,6.465,0,0,0-.62,4.434l2.415,11.236,4.477,4.2h-11.533l-7.679-20.78,3.283-1.038a6.212,6.212,0,0,0,4.339-5.816l.385-22.291a25.36,25.36,0,0,1,6.09-16.783l-18.418-.9Z" transform="translate(-1860.041 -2635.695)" fill="url(#linear-gradient-41)"/>
        <path id="Path_85" data-name="Path 85" d="M1949.721,3013.055c1.05,1.375-11.3,3.188-17.546.182,0,0-8.653-15.054-8.653-22.805,0,0,.687-1.58,5.767-1.222,0,0,2.906,17.825,5.973,19.821s8.583.2,8.583.2S1948.172,3011.027,1949.721,3013.055Z" transform="translate(-1867.334 -2909.71)" fill="url(#linear-gradient-42)"/>
        <path id="Path_86" data-name="Path 86" d="M1925.973,2681.987c.1-.169,19.83-2.372,19.83-2.372a45.608,45.608,0,0,0,1.372,14.258c2.018,8.259,30.989,44.041,30.989,44.041l-3.038,9.63a48.861,48.861,0,0,0,27.722,1.667l-18.826-11.3s-17.618-60.041-28.41-70.751l-19.779-6.843Z" transform="translate(-1869.291 -2647.051)" fill="url(#linear-gradient-43)"/>
        <path id="Path_87" data-name="Path 87" d="M1656.758,2594.394s-11.369,16.909-12.3,24.623,3.114,10.847,15.042,11.364,43.773.509,43.773.509l27.179-23.228s-19.807-7.068-24.956-9.066S1656.758,2594.394,1656.758,2594.394Z" transform="translate(-1644.328 -2594.394)" fill="url(#linear-gradient-44)"/>
        <path id="Path_88" data-name="Path 88" d="M2168.661,3077.612s-3.271,3.168-1.062,6.692c0,0,25.907,4.592,32.941,2.509,0,0-1.461-3.333-9.381-7.128l.584.449a.946.946,0,0,1-.625,1.7C2185.9,3081.533,2175.1,3080.577,2168.661,3077.612Z" transform="translate(-2061.677 -2980.363)" fill="url(#linear-gradient-45)"/>
      </g>
      <g id="Group_25" data-name="Group 25" transform="translate(43.497 47.187)">
        <path id="Path_89" data-name="Path 89" d="M1672.352,2122.268c-1.718.536-7.91,2.758-7.11,6.74a.728.728,0,0,1-.912.835c-2.668-.718-8.562-1.624-12.215,2.955-3.226,4.042-.815,7.856,1.15,9.95a.733.733,0,0,1-.612,1.24c-4.905-.62-15.564-.768-17.308,9.217-1.626,9.311,4.854,11.937,8.7,12.677a.729.729,0,0,1,.243,1.335c-1.917,1.217-4.139,3.73-3.241,8.691,1.407,7.775,16.651,7.138,18.432,7.037a.716.716,0,0,0,.318-.095l24.416-13.925a.734.734,0,0,0,.36-.513l4.929-28.468a.733.733,0,0,0-.194-.634l-16.211-16.849A.728.728,0,0,0,1672.352,2122.268Z" transform="translate(-1634.878 -2105.855)" fill="url(#linear-gradient-46)"/>
        <path id="Path_90" data-name="Path 90" d="M1691.136,2340.006s13.239-12.606,19.755-20.955a17.715,17.715,0,0,0,3-15.944c-2.975-10.023-8.263-20.405-8.745-22.021-.739-2.477-15.583-2.374-15.583-2.374s-29.21,18.958-40.687,51.07l12.889,4.013s7.627-12.8,15.163-20.93c0,0-13.04,17.225-13.5,24.277Z" transform="translate(-1645.891 -2230.841)" fill="url(#linear-gradient-47)"/>
        <path id="Path_91" data-name="Path 91" d="M1871.17,2213.794c-.155.515-4.029,13.359-4.332,13.625s-8.5.707-12.354-1.929l6.543-13.7Z" transform="translate(-1810.119 -2177.39)" fill="url(#linear-gradient-48)"/>
        <g id="Group_24" data-name="Group 24" transform="translate(34.532)">
          <path id="Path_92" data-name="Path 92" d="M1856.338,2086.028s6.994,2.953,11.75,13.06,1.2,14.773-3.257,15.414-11.133.543-18.189-5.986S1847.246,2082.526,1856.338,2086.028Z" transform="translate(-1836.184 -2076.601)" fill="url(#linear-gradient-49)"/>
          <path id="Path_93" data-name="Path 93" d="M1820.828,2067.365s-5.277-14.787,7.833-14.962l3.085,2.156s4.811-8.2-3.085-12.112-17.135-.681-20.5,9.956-3.933,17.757,1.656,22.846,7.893-.681,7.893-.681-3.044-4.76-1.8-7.307,4.1.527,4.1.527Z" transform="translate(-1805.626 -2040.845)" fill="url(#linear-gradient-50)"/>
          <path id="Path_94" data-name="Path 94" d="M1852.829,2161.577s-2.594-7.527-6.227-4.584c-4.72,3.824,2.152,7.541,5.419,8.333Z" transform="translate(-1837.072 -2133.073)" fill="url(#linear-gradient-51)"/>
        </g>
        <path id="Path_95" data-name="Path 95" d="M1706.258,2543.635l-9.727-9.375-13.455,5.684s-13.394,2.075-21.059,0l-7.666-2.075-17.323-5.393-2.72,7.689a4.629,4.629,0,0,0,1.691,5.319,30.523,30.523,0,0,0,4.375,2.725c2.281,1,56.235-.69,56.235-.69Z" transform="translate(-1634.043 -2433.534)" fill="url(#linear-gradient-52)"/>
      </g>
      <g id="Group_26" data-name="Group 26" transform="translate(76.505 110.48)">
        <path id="Path_96" data-name="Path 96" d="M1800.452,2589.6c.043,0,.086,0,.13,0l56.423-.062a2.525,2.525,0,1,0-.006-5.051l-56.422.062a2.525,2.525,0,0,0-.124,5.047Z" transform="translate(-1798.053 -2538.376)" fill="url(#linear-gradient-53)"/>
        <path id="Path_97" data-name="Path 97" d="M2038.143,2355.338h-46.989a8.956,8.956,0,0,0-8.1,5.136l-21.723,46.063h58.395a5.443,5.443,0,0,0,5.062-3.442l16.845-42.624A3.752,3.752,0,0,0,2038.143,2355.338Z" transform="translate(-1928.471 -2355.338)" fill="url(#linear-gradient-54)"/>
        <path id="Path_98" data-name="Path 98" d="M2176.708,2454.012c-1.018,3.164-.266,6.236,1.68,6.863s4.35-1.431,5.368-4.594.266-6.236-1.68-6.863S2177.726,2450.849,2176.708,2454.012Z" transform="translate(-2100.139 -2430.394)" fill="url(#linear-gradient-55)"/>
      </g>
      <g id="Group_27" data-name="Group 27" transform="translate(190.373 152.88)">
        <path id="Path_99" data-name="Path 99" d="M2372.265,2578.187h55.529v-5.731h-55.529C2373.453,2572.457,2373.453,2578.187,2372.265,2578.187Z" transform="translate(-2370.572 -2571.161)" fill="url(#linear-gradient-55)"/>
        <path id="Path_100" data-name="Path 100" d="M2420.4,2573.045a.677.677,0,0,0,.675-.675v-4.381a.677.677,0,0,0-.675-.675h-55.873a.648.648,0,1,1,0-1.3h59.728a2.4,2.4,0,0,1,2.4,2.4v3.663a2.261,2.261,0,0,1-2.261,2.261h-59.865a.648.648,0,1,1,0-1.3Z" transform="translate(-2363.851 -2566.019)" fill="url(#linear-gradient-57)"/>
      </g>
      <path id="Path_101" data-name="Path 101" d="M1417.958,2609.817a1.978,1.978,0,0,1,.529-1.8,2.678,2.678,0,0,1,1.938-.794h254.129a3.02,3.02,0,0,1,2.437,1.159,2.23,2.23,0,0,1,.189,2.407l-2.754,5.176a3.93,3.93,0,0,1-3.5,1.944H1422.169a2.845,2.845,0,0,1-2.866-2.054Z" transform="translate(-1417.913 -2446.048)" fill="url(#linear-gradient-58)"/>
    </g>
    <g id="Group_34" data-name="Group 34" transform="translate(470.915 589.525)">
      <g id="Group_30" data-name="Group 30" transform="translate(76.165 40.937)">
        <path id="Path_102" data-name="Path 102" d="M938.294,1429.112s-15.137,41.263-40.928,54.16c0,0,8.584,14.007,13.064,14.856,0,0,27.552-35.263,30.361-64.154Z" transform="translate(-897.366 -1420.047)" fill="url(#linear-gradient-59)"/>
        <g id="Group_29" data-name="Group 29" transform="translate(37.916)">
          <path id="Path_103" data-name="Path 103" d="M1090.232,1400.644c.231.734-2.443,1.852-4.018-1.151-.055-1.439-.93-7.6-.07-8.776,4.58-6.244,9.416-6.648,9.416-6.648.9,1.628,2,3,2.515,4.972a6.035,6.035,0,0,1-.6,4.442c-.756,1.362-1.788,3.133-2.763,4.519A5.959,5.959,0,0,1,1090.232,1400.644Z" transform="translate(-1085.768 -1384.069)" fill="url(#linear-gradient-60)"/>
        </g>
      </g>
      <g id="Group_32" data-name="Group 32" transform="translate(64.722)">
        <path id="Path_104" data-name="Path 104" d="M847.064,1298l104.832-1.5a4.962,4.962,0,0,0,4.89-5.033l-1.52-105.915a4.962,4.962,0,0,0-5.033-4.89l-104.832,1.5a4.962,4.962,0,0,0-4.89,5.032l1.52,105.915A4.962,4.962,0,0,0,847.064,1298Z" transform="translate(-840.51 -1180.656)" fill="url(#linear-gradient-61)"/>
        <g id="Group_31" data-name="Group 31" transform="translate(11.134 27.699)">
          <path id="Path_105" data-name="Path 105" d="M896.016,1441.767l21.368-30.781a1.248,1.248,0,0,1,1-.515,1.263,1.263,0,0,1,1.029.476l13.4,17.564,20.959-29.726a1.359,1.359,0,0,1,2.115-.053l33.456,42.824a1.271,1.271,0,0,1,.091,1.319,1.447,1.447,0,0,1-1.138.75l-44.127.052-21.862.026-25.256.03a1.385,1.385,0,0,1-1.063-.711A1.256,1.256,0,0,1,896.016,1441.767Z" transform="translate(-895.836 -1382.16)" fill="#fff"/>
          <path id="Path_106" data-name="Path 106" d="M971.326,1328a9.487,9.487,0,0,0,9.844,9.139,9.619,9.619,0,0,0,9.5-9.71,9.486,9.486,0,0,0-9.946-9.136A9.621,9.621,0,0,0,971.326,1328Z" transform="translate(-956.131 -1318.291)" fill="#fff"/>
        </g>
      </g>
      <path id="Path_107" data-name="Path 107" d="M686.7,1524.794s-5.321,2.588-6.3,5.561c-.785,2.385-6.668,2.693-7.25,7.385a5.384,5.384,0,0,1-4.505,4.732c-6.009.921-15.269,4.041-16.75,14.474-1.131,7.963,2.929,10.982,7.189,12.028a6.034,6.034,0,0,1,4.576,6.97c-.607,3.03.3,6.533,5.548,9.3,11.763,6.207,23.511-14.705,23.511-14.705l2.408-36.514Z" transform="translate(-624.975 -1455.535)" fill="url(#linear-gradient-62)"/>
      <path id="Path_108" data-name="Path 108" d="M532.28,2652.936l-.761,6.258a2.585,2.585,0,0,1-2.268,2.261,39.974,39.974,0,0,1-8.375.131,2.214,2.214,0,0,1-1.859-2.871c.768-2.416,2.172-6.042,4.2-8.176h6.942A2.138,2.138,0,0,1,532.28,2652.936Z" transform="translate(-518.913 -2354.72)" fill="url(#linear-gradient-63)"/>
      <path id="Path_109" data-name="Path 109" d="M802.331,2298.2l1.172,6.893s-3.924,39.744-4.622,55.642a12.459,12.459,0,0,0,1.844,7.08l6.823,11.079-17.34-10.232-.345-2.116,2.839-3.9-3.718-44.523a13.662,13.662,0,0,1,1.555-7.556l3.587-6.738Z" transform="translate(-734.593 -2073.289)" fill="url(#linear-gradient-64)"/>
      <path id="Path_110" data-name="Path 110" d="M806.951,2641.834h-5.534a3.331,3.331,0,0,1-2.644-1.3c-1.725-2.242-5.3-6.615-7.008-6.729-2.3-.153-2.006,8.025-2.006,8.025H788.47l-1.634-10.163a6.017,6.017,0,0,1,3.157-6.288h0s.526,3.889,3.378,5.61,11.6,7.881,11.6,7.881a7.907,7.907,0,0,1,2.249.06A1.463,1.463,0,0,1,806.951,2641.834Z" transform="translate(-732.855 -2334.627)" fill="url(#linear-gradient-65)"/>
      <path id="Path_111" data-name="Path 111" d="M572.55,2303.094s-22.987,43.6-26.64,53.559a95.625,95.625,0,0,0-4.983,19.047c-.077,1.229-1.605,2.407-5.818,2.407-2.174,0-3.239-.872-3.761-1.715a2.456,2.456,0,0,1-.093-2.379c1.329-2.691,5.549-11.29,7.112-15.191,1.866-4.657,5.879-25.761,8.081-33.1s4.689-15.3,14.275-22.629C560.722,2303.094,567.3,2296.65,572.55,2303.094Z" transform="translate(-528.562 -2074.912)" fill="url(#linear-gradient-66)"/>
      <path id="Path_112" data-name="Path 112" d="M773.556,1750.8c5.929-25.126-9.092-39.336-9.092-39.336,9.478-9.1,26.747-13.238,26.747-13.238s16.478,12.047,14.523,21.476c-1.146,5.527-11.583,33.1-11.583,33.1A22.932,22.932,0,0,1,773.556,1750.8Z" transform="translate(-715.046 -1594.063)" fill="url(#linear-gradient-67)"/>
      <path id="Path_113" data-name="Path 113" d="M689.021,1971.9c2.413-7.27,13.147-12.439,13.147-12.439a22.932,22.932,0,0,0,20.6,2.006s2.164,8.273.671,15.961-10.866,57.1-10.866,57.1c-14.768,2.992-37.479-3.011-37.479-3.011C684.5,2014.813,686.608,1979.167,689.021,1971.9Z" transform="translate(-643.658 -1802.722)" fill="url(#linear-gradient-68)"/>
      <path id="Path_114" data-name="Path 114" d="M824.408,1607.529l-4.821,21.654c-.461,1.907,1.277,1.595,3.205,1.231,3.158-.6,7.229-1.822,8.589-4.279a2.334,2.334,0,0,0,.247-.816L833.7,1610.3a2.7,2.7,0,0,0-1.579-2.835l-4-1.772A2.7,2.7,0,0,0,824.408,1607.529Z" transform="translate(-759.015 -1519.97)" fill="url(#linear-gradient-69)"/>
      <g id="Group_33" data-name="Group 33" transform="translate(54.596 59.246)">
        <path id="Path_115" data-name="Path 115" d="M831.593,1511.924s5.709,2.411,9.591,10.661.983,12.06-2.658,12.582-9.088.444-14.847-4.886S824.171,1509.066,831.593,1511.924Z" transform="translate(-815.141 -1504.229)" fill="url(#linear-gradient-70)"/>
        <path id="Path_116" data-name="Path 116" d="M802.605,1496.69S798.3,1484.62,809,1484.477l2.518,1.76s3.927-6.692-2.518-9.887-13.988-.556-16.73,8.127-3.211,14.495,1.352,18.649,6.443-.556,6.443-.556-2.485-3.885-1.473-5.964,3.345.43,3.345.43Z" transform="translate(-790.196 -1475.042)" fill="url(#linear-gradient-71)"/>
        <path id="Path_117" data-name="Path 117" d="M822.327,1572.125s-2.178-6.218-5.083-3.742,2.361,5.744,4.423,6.8Z" transform="translate(-811.117 -1549.133)" fill="url(#linear-gradient-72)"/>
      </g>
      <path id="Path_118" data-name="Path 118" d="M749.749,1718.152s44.1,53.845,77.042-7.464a7.577,7.577,0,0,0,.237-3.829c-.2-1.143.556-5.2.971-7.265a1.141,1.141,0,0,0-1.015-1.36h0a1.56,1.56,0,0,0-1.377.59l-6.018,7.663a3.213,3.213,0,0,0,1.7,3.814h0a1.585,1.585,0,0,1,.587,2.394c-25.055,32.843-66.961-3.2-67.728-2.773C751.431,1711.422,748.287,1713.082,749.749,1718.152Z" transform="translate(-702.996 -1594.063)" fill="url(#linear-gradient-73)"/>
    </g>
    <g id="Group_40" data-name="Group 40" transform="translate(729.356 599.339)">
      <g id="Group_36" data-name="Group 36" transform="translate(0 58.632)">
        <circle id="Ellipse_8" data-name="Ellipse 8" cx="37.788" cy="37.788" r="37.788" transform="translate(0 53.44) rotate(-45)" fill="url(#linear-gradient-74)"/>
        <g id="Group_35" data-name="Group 35" transform="translate(25.233 39.321)">
          <path id="Path_119" data-name="Path 119" d="M1944.393,1753.983l-15.939-8.112v-2.612l15.939-9.229v4.447l-11.027,5.89,11.027,5.189Z" transform="translate(-1928.454 -1730.428)" fill="#fff"/>
          <path id="Path_120" data-name="Path 120" d="M2037.853,1716.138l-9.065,27.4-4.554-.046,8.994-27.287Z" transform="translate(-2004.958 -1716.138)" fill="#fff"/>
          <path id="Path_121" data-name="Path 121" d="M2108.646,1748.766l11.649-5.316-11.649-5.96v-4.526l16.988,9.31v2.736l-16.988,8.262Z" transform="translate(-2072.382 -1729.578)" fill="#fff"/>
        </g>
      </g>
      <g id="Group_37" data-name="Group 37" transform="translate(68.025 0)">
        <circle id="Ellipse_9" data-name="Ellipse 9" cx="37.788" cy="37.788" r="37.788" transform="translate(0 53.44) rotate(-45)" fill="url(#linear-gradient-75)"/>
        <path id="Path_122" data-name="Path 122" d="M2345.853,1410.079v31.833c0,2.044,1.73,3.319,3.225,2.381l26.658-16.734c1.663-1.044,1.663-4,0-4.942l-26.658-15.114C2347.583,1406.654,2345.853,1408.035,2345.853,1410.079Z" transform="translate(-2304.642 -1371.461)" fill="#fff"/>
      </g>
      <g id="Group_39" data-name="Group 39" transform="translate(150.637 39.755)">
        <circle id="Ellipse_10" data-name="Ellipse 10" cx="37.788" cy="37.788" r="37.788" transform="translate(0 53.44) rotate(-45)" fill="url(#linear-gradient-76)"/>
        <g id="Group_38" data-name="Group 38" transform="translate(31.251 33.935)">
          <rect id="Rectangle_7" data-name="Rectangle 7" width="9.278" height="16.954" transform="translate(0 18.386)" fill="#fff"/>
          <rect id="Rectangle_8" data-name="Rectangle 8" width="9.278" height="26.744" transform="translate(15.037 8.596)" fill="#fff"/>
          <rect id="Rectangle_9" data-name="Rectangle 9" width="9.278" height="35.34" transform="translate(30.393)" fill="#fff"/>
        </g>
      </g>
    </g>
  </g>
</svg>
