<svg xmlns="http://www.w3.org/2000/svg" xmlns:xlink="http://www.w3.org/1999/xlink" viewBox="0 0 794.11 107.89"><defs><style>.cls-1{isolation:isolate;}.cls-2,.cls-3,.cls-5,.cls-6{mix-blend-mode:multiply;}.cls-2{fill:url(#Degradado_sin_nombre_747);}.cls-3{fill:url(#Degradado_sin_nombre_747-2);}.cls-4,.cls-5{fill:#fff;}.cls-7{fill:none;}</style><radialGradient id="Degradado_sin_nombre_747" cx="590.98" cy="1294.62" fx="566.936528998828" r="25.49" gradientTransform="matrix(0, -1.28, -0.43, 0, 592.84, 871.22)" gradientUnits="userSpaceOnUse"><stop offset="0"/><stop offset="0.18" stop-color="#3e3e3e"/><stop offset="0.44" stop-color="#909090"/><stop offset="0.66" stop-color="#ccc"/><stop offset="0.81" stop-color="#f1f1f1"/><stop offset="0.9" stop-color="#fff"/></radialGradient><radialGradient id="Degradado_sin_nombre_747-2" cx="-35.1" cy="718.31" fx="-59.14353807500967" r="25.49" gradientTransform="matrix(1.28, 0, 0, 0.43, 145.15, -195.14)" xlink:href="#Degradado_sin_nombre_747"/></defs><title>logo_full</title><g class="cls-1"><g id="Layer_2" data-name="Layer 2"><g id="OBJECTS"><ellipse class="cls-2" cx="31.44" cy="116.34" rx="11.12" ry="32.75" transform="translate(-88.98 86.69) rotate(-72.65)"/><ellipse class="cls-3" cx="100.28" cy="116.34" rx="32.75" ry="11.12" transform="translate(-30.14 10.24) rotate(-17.35)"/><path class="cls-4" d="M11.71,80.84l50.51,50.5v-3.68L13.55,79Zm5.71-5.71L15.58,77l19.6,19.6,27,27v-3.68L37,94.74ZM48.7,83.21v0L29,63.53l-1.84,1.84L46.85,85l15.37,15.37V96.72ZM25.15,67.39l-1.84,1.84,38.91,38.91v-3.68L44.81,87.06Zm-5.7,5.72,42.77,42.77v-3.69L21.29,71.27Z" transform="translate(0 -24.96)"/><path class="cls-5" d="M15.58,77l27.21,27.16,1.85-1.84L17.42,75.13Zm-3.87,3.87L38.9,108l1.85-1.83L13.55,79Zm11.6-11.61L50.57,96.44l1.85-1.83L25.15,67.39ZM29,63.53l-1.84,1.84L54.45,92.6l1.86-1.83Zm-9.57,9.58,27.23,27.17,1.85-1.82L21.29,71.27Z" transform="translate(0 -24.96)"/><path class="cls-4" d="M62.22,30.32,11.71,80.82l1.84,1.84L62.22,34Zm0,15.47L19.45,88.56l1.84,1.84L62.22,49.47Zm0-7.74L15.58,84.69l1.84,1.84,44.8-44.79Zm0,15.47L23.31,92.42l1.84,1.84L62.22,57.2ZM29,98.13l33.2-33.19V61.25l-35,35Z" transform="translate(0 -24.96)"/><g class="cls-6"><polygon class="cls-7" points="62.22 5.36 61.74 5.83 61.74 8.57 13.08 57.23 13.55 57.7 62.22 9.04 62.22 5.36"/><polygon class="cls-7" points="62.22 13.09 61.74 13.56 61.74 16.3 16.95 61.1 17.42 61.57 62.22 16.77 62.22 13.09"/><polygon class="cls-7" points="62.22 28.56 61.74 29.03 61.75 31.77 24.68 68.83 25.15 69.3 62.22 32.24 62.22 28.56"/><polygon class="cls-7" points="62.22 20.83 61.74 21.3 61.74 24.04 20.81 64.96 21.29 65.44 62.22 24.51 62.22 20.83"/><polygon class="cls-7" points="61.74 39.51 28.55 72.7 29.02 73.17 62.22 39.98 62.22 36.29 61.74 36.76 61.74 39.51"/></g><path class="cls-4" d="M120.38,80.82l-50.5-50.5V34l48.66,48.66Zm-5.7,5.72,1.84-1.85-19.6-19.6-27-27v3.68l25.19,25.2ZM83.4,78.45v0l19.67,19.66,1.84-1.84L85.25,76.62,69.88,61.25V65ZM107,94.27l1.84-1.84L69.88,53.52V57.2L87.29,74.61Zm5.7-5.71L69.88,45.79v3.68L110.81,90.4Z" transform="translate(0 -24.96)"/><path class="cls-5" d="M116.52,84.69,89.31,57.54l-1.85,1.83,27.22,27.17Zm3.86-3.87L93.2,53.69l-1.85,1.83,27.19,27.14ZM108.79,92.43,81.53,65.22l-1.85,1.83L107,94.27Zm-5.71,5.7,1.84-1.84L77.65,69.07,75.79,70.9Zm9.57-9.57L85.42,61.38l-1.85,1.83L110.81,90.4Z" transform="translate(0 -24.96)"/><path class="cls-4" d="M69.88,123.61,116.52,77l-1.84-1.84-44.8,44.8Zm0-7.73,42.77-42.77-1.84-1.85L69.88,112.19ZM118.55,79,69.88,127.66v3.68l50.51-50.5ZM103.08,63.53,69.88,96.72v3.69l35-35ZM107,67.4,69.88,104.46v3.68l38.91-38.9Z" transform="translate(0 -24.96)"/><g class="cls-6"><polygon class="cls-4" points="69.88 98.65 116.52 52.01 115.99 51.48 70.57 96.9 70.57 94.28 69.88 94.97 69.88 98.65"/><polygon class="cls-4" points="69.88 87.23 69.88 90.92 112.65 48.15 112.12 47.61 70.57 89.17 70.57 86.55 69.88 87.23"/><polygon class="cls-4" points="104.39 39.88 70.57 73.7 70.57 71.07 69.88 71.76 69.88 75.45 104.92 40.41 104.39 39.88"/><polygon class="cls-4" points="108.25 43.75 70.57 81.43 70.56 78.82 69.88 79.5 69.88 83.18 108.79 44.28 108.25 43.75"/><polygon class="cls-4" points="70.57 104.63 70.57 102.02 69.88 102.7 69.88 106.38 120.39 55.88 119.85 55.35 70.57 104.63"/></g><line class="cls-4" x1="65.86" y1="4.43" x2="65.86" y2="107.89"/><line class="cls-4" x1="68.88" y1="56.96" x2="82.7" y2="56.96"/><path class="cls-4" d="M219.87,26.52V43.84H185.4v85.64H163.87V43.84H129.24V26.52Z" transform="translate(0 -24.96)"/><path class="cls-4" d="M259,26.52v103H237.5v-103Z" transform="translate(0 -24.96)"/><path class="cls-4" d="M374.31,26.52v103H349.67L313.63,69,304.74,52.1h-.16l.63,17.79v59.59H285.86v-103h24.49l36,60.37,8.89,17h.31L355,86.11V26.52Z" transform="translate(0 -24.96)"/><path class="cls-4" d="M438.74,25q14,0,24.65,4.84a48.36,48.36,0,0,1,18.1,14.35L469.47,58a42.44,42.44,0,0,0-14-11.93A38.38,38.38,0,0,0,438,42.28,29.51,29.51,0,0,0,427.12,44a13.35,13.35,0,0,0-6.24,4.53,10.68,10.68,0,0,0-1.95,6.24,9.07,9.07,0,0,0,3.28,7.09q3.27,2.9,11.23,4.76L452.63,71q15.28,3.43,21.91,10.22t6.63,17.55a28.67,28.67,0,0,1-5.3,17.39,33.13,33.13,0,0,1-14.82,11.08A58.26,58.26,0,0,1,439.21,131a71.5,71.5,0,0,1-19.73-2.57,59.6,59.6,0,0,1-16-7.1,47.63,47.63,0,0,1-11.7-10.45L404,96.41a39.92,39.92,0,0,0,8.9,8.89,43,43,0,0,0,12.09,6.16,44.75,44.75,0,0,0,14.27,2.26,34.5,34.5,0,0,0,10.84-1.48,14.34,14.34,0,0,0,6.71-4.21A10,10,0,0,0,459,101.4a9.74,9.74,0,0,0-2.73-6.94q-2.73-2.88-10.06-4.45l-20.9-4.68a63.93,63.93,0,0,1-15.53-5.69,25.17,25.17,0,0,1-9.82-9,24.93,24.93,0,0,1-3.36-13.18,28.7,28.7,0,0,1,5-16.54A34,34,0,0,1,416,29.25Q425.48,25,438.74,25Z" transform="translate(0 -24.96)"/><path class="cls-4" d="M546.07,25q15.28,0,26.36,6.4a43,43,0,0,1,17.09,18.25q6,11.85,6,28.39t-6,28.39a42.92,42.92,0,0,1-17.09,18.25q-11.07,6.4-26.36,6.4t-26.44-6.4a42.72,42.72,0,0,1-17.16-18.25q-6-11.85-6-28.39t6-28.39a42.77,42.77,0,0,1,17.16-18.25Q530.77,25,546.07,25Zm0,17.63a26.14,26.14,0,0,0-14.82,4A25.27,25.27,0,0,0,522,58.58q-3.19,7.88-3.2,19.42,0,11.39,3.2,19.34a25.2,25.2,0,0,0,9.28,12,26.14,26.14,0,0,0,14.82,4,25.83,25.83,0,0,0,14.66-4,25.28,25.28,0,0,0,9.29-12q3.19-7.95,3.19-19.34T570,58.58a25.35,25.35,0,0,0-9.29-11.94A25.83,25.83,0,0,0,546.07,42.59Z" transform="translate(0 -24.96)"/><path class="cls-4" d="M694.27,43.84H638.73V70h43.84V87.36H638.73v42.12H617.2v-103h77.07Z" transform="translate(0 -24.96)"/><path class="cls-4" d="M794.11,26.52V43.84H759.63v85.64H738.1V43.84H703.47V26.52Z" transform="translate(0 -24.96)"/></g></g></g></svg>