<svg xmlns="http://www.w3.org/2000/svg" xmlns:xlink="http://www.w3.org/1999/xlink" viewBox="0 0 283.14 222.4"><defs><style>.cls-1{isolation:isolate;}.cls-2,.cls-3,.cls-5,.cls-6{mix-blend-mode:multiply;}.cls-2{fill:url(#Degradado_sin_nombre_747);}.cls-3{fill:url(#Degradado_sin_nombre_747-2);}.cls-4,.cls-5{fill:#fff;}.cls-7{fill:none;}</style><radialGradient id="Degradado_sin_nombre_747" cx="102.57" cy="388.89" fx="50.89148315533756" r="54.79" gradientTransform="matrix(0, -1.28, -0.43, 0, 236.22, 317.91)" gradientUnits="userSpaceOnUse"><stop offset="0"/><stop offset="0.18" stop-color="#3e3e3e"/><stop offset="0.44" stop-color="#909090"/><stop offset="0.66" stop-color="#ccc"/><stop offset="0.81" stop-color="#f1f1f1"/><stop offset="0.9" stop-color="#fff"/></radialGradient><radialGradient id="Degradado_sin_nombre_747-2" cx="103.13" cy="389.41" fx="51.45553637540539" r="54.79" gradientTransform="matrix(1.28, 0, 0, 0.43, 83.83, 18.04)" xlink:href="#Degradado_sin_nombre_747"/></defs><title>Asset 8</title><g class="cls-1"><g id="Layer_2" data-name="Layer 2"><g id="OBJECTS"><ellipse class="cls-2" cx="67.59" cy="186.9" rx="23.9" ry="70.41" transform="translate(-130.96 195.66) rotate(-72.65)"/><ellipse class="cls-3" cx="215.55" cy="186.9" rx="70.41" ry="23.9" transform="translate(-45.94 72.8) rotate(-17.35)"/><path class="cls-4" d="M25.18,110.6,133.74,219.16v-7.91L29.14,106.64ZM37.44,98.32l-3.95,4,42.13,42.13,58.12,58.13v-7.92L79.59,140.47Zm67.25,17.37,0,0L62.39,73.39l-4,4,42.27,42.28,33,33.05v-8Zm-50.62-34-4,4,83.63,83.63v-7.91L96.33,124ZM41.81,94l91.93,91.94V178l-88-88Z"/><path class="cls-5" d="M33.49,102.28,92,160.65l4-3.93L37.44,98.32Zm-8.31,8.32,58.43,58.32,4-3.94L29.14,106.64ZM50.11,85.65l58.6,58.49,4-3.94L54.07,81.69ZM62.39,73.39l-4,4,58.62,58.52,4-3.93ZM41.81,94l58.52,58.42,4-3.92L45.76,90Z"/><path class="cls-4" d="M133.74,2,25.18,110.56l4,4L133.74,9.92Zm0,33.25L41.8,127.19l4,4,88-88Zm0-16.62L33.49,118.87l4,4,96.29-96.29Zm0,33.24L50.11,135.5l4,4,79.67-79.68Zm-71.36,95.9,71.36-71.34V68.49L58.43,143.81Z"/><g class="cls-6"><polygon class="cls-7" points="133.74 2 132.72 3.02 132.72 8.9 28.12 113.5 29.14 114.52 133.74 9.92 133.74 2"/><polygon class="cls-7" points="133.74 18.63 132.72 19.64 132.72 25.52 36.43 121.81 37.45 122.83 133.74 26.54 133.74 18.63"/><polygon class="cls-7" points="133.74 51.87 132.73 52.88 132.73 58.77 53.05 138.44 54.07 139.46 133.75 59.78 133.74 51.87"/><polygon class="cls-7" points="133.74 35.25 132.72 36.27 132.72 42.15 44.74 130.13 45.76 131.15 133.74 43.16 133.74 35.25"/><polygon class="cls-7" points="132.72 75.41 61.37 146.75 62.38 147.77 133.74 76.43 133.74 68.49 132.72 69.51 132.72 75.41"/></g><path class="cls-4" d="M258.78,110.56,150.21,2V9.91L254.82,114.52Zm-12.26,12.28,3.95-4L208.34,76.75,150.21,18.63v7.91l54.16,54.15Zm-67.25-17.37,0,0,42.28,42.26,4-4-42.27-42.28-33-33v7.94Zm50.62,34,4-4L150.21,51.88v7.91L187.63,97.2Zm12.26-12.28L150.21,35.25v7.91l88,88Z"/><path class="cls-5" d="M250.47,118.89,192,60.51l-4,3.93,58.51,58.4Zm8.31-8.33L200.34,52.24l-4,3.94,58.45,58.34Zm-24.93,24.95L175.25,77l-4,3.94,58.62,58.51Zm-12.28,12.26,4-4L166.91,85.29l-4,3.94Zm20.58-20.58L183.62,68.77l-4,3.92,58.57,58.45Z"/><path class="cls-4" d="M150.22,202.54,250.47,102.29l-4-4-96.29,96.29Zm0-16.63L242.16,94l-4-4-88,88Zm104.6-79.27L150.22,211.25v7.91L258.78,110.6ZM221.58,73.39l-71.36,71.34v7.94l75.31-75.32Zm8.31,8.32-79.68,79.67v7.91l83.63-83.63Z"/><g class="cls-6"><polygon class="cls-4" points="150.22 202.54 250.47 102.29 249.32 101.14 151.69 198.78 151.69 193.15 150.22 194.62 150.22 202.54"/><polygon class="cls-4" points="150.22 178 150.22 185.91 242.16 93.97 241.01 92.83 151.69 182.15 151.69 176.53 150.22 178"/><polygon class="cls-4" points="224.39 76.21 151.69 148.91 151.69 143.26 150.22 144.73 150.22 152.67 225.53 77.35 224.39 76.21"/><polygon class="cls-4" points="232.7 84.52 151.69 165.53 151.69 159.91 150.21 161.38 150.22 169.29 233.84 85.66 232.7 84.52"/><polygon class="cls-4" points="151.69 215.4 151.69 209.78 150.22 211.25 150.22 219.16 258.78 110.6 257.64 109.45 151.69 215.4"/></g><line class="cls-4" x1="141.57" x2="141.57" y2="222.4"/><line class="cls-4" x1="148.06" y1="112.92" x2="177.76" y2="112.92"/></g></g></g></svg>