<svg xmlns="http://www.w3.org/2000/svg" viewBox="0 0 233.6 302.78"><defs><style>.cls-1{isolation:isolate;}.cls-2,.cls-6{fill:#fff;}.cls-3{font-size:13.02px;fill:#d40cf6;font-family:Montserrat-Regular, Montserrat Regular;letter-spacing:0.41em;}.cls-4{letter-spacing:0.37em;}.cls-5{letter-spacing:0.41em;}.cls-6,.cls-7{mix-blend-mode:multiply;}.cls-8{fill:none;}</style></defs><title>new_logo_1</title><g class="cls-1"><g id="Layer_2" data-name="Layer 2"><g id="OBJECTS"><path class="cls-2" d="M50.54,254.41v4.34H41.9v21.43H36.52V258.75H27.85v-4.34Z"/><path class="cls-2" d="M62.29,254.41v25.77H56.9V254.41Z"/><path class="cls-2" d="M93.1,254.41v25.77H86.93l-9-15.15-2.23-4.22h0l.16,4.46v14.91H71V254.41h6.13l9,15.11,2.23,4.26h.07l-.15-4.45V254.41Z"/><path class="cls-2" d="M111.18,254a14.7,14.7,0,0,1,6.17,1.21,12.19,12.19,0,0,1,4.53,3.59l-3,3.48a10.72,10.72,0,0,0-3.49-3,9.63,9.63,0,0,0-4.4-1,7.51,7.51,0,0,0-2.71.43,3.31,3.31,0,0,0-1.56,1.14,2.65,2.65,0,0,0-.49,1.56,2.29,2.29,0,0,0,.82,1.78,6.79,6.79,0,0,0,2.81,1.19l4.81,1.09a10.9,10.9,0,0,1,5.48,2.56,6,6,0,0,1,1.66,4.39,7.19,7.19,0,0,1-1.33,4.36,8.26,8.26,0,0,1-3.71,2.77,14.5,14.5,0,0,1-5.46.95,17.8,17.8,0,0,1-4.94-.64,14.94,14.94,0,0,1-4-1.78,11.73,11.73,0,0,1-2.92-2.61l3-3.63a10,10,0,0,0,2.23,2.22,10.62,10.62,0,0,0,3,1.54,11.23,11.23,0,0,0,3.58.57,8.57,8.57,0,0,0,2.71-.37,3.61,3.61,0,0,0,1.68-1.06,2.48,2.48,0,0,0,.57-1.66,2.42,2.42,0,0,0-.69-1.73,4.86,4.86,0,0,0-2.52-1.12l-5.23-1.17a16.07,16.07,0,0,1-3.88-1.42,6.3,6.3,0,0,1-2.46-2.27,6.23,6.23,0,0,1-.84-3.3,7.16,7.16,0,0,1,1.25-4.14,8.48,8.48,0,0,1,3.61-2.91A13.74,13.74,0,0,1,111.18,254Z"/><path class="cls-2" d="M140,254a13,13,0,0,1,6.6,1.6,10.73,10.73,0,0,1,4.27,4.57,17.47,17.47,0,0,1,0,14.21A10.67,10.67,0,0,1,146.6,279a14.45,14.45,0,0,1-13.22,0,10.74,10.74,0,0,1-4.3-4.57,17.58,17.58,0,0,1,0-14.21,10.79,10.79,0,0,1,4.3-4.57A13.06,13.06,0,0,1,140,254Zm0,4.41a6.5,6.5,0,0,0-3.71,1,6.34,6.34,0,0,0-2.33,3,15.28,15.28,0,0,0,0,9.7,6.35,6.35,0,0,0,2.33,3,7.25,7.25,0,0,0,7.38,0,6.33,6.33,0,0,0,2.32-3,15.1,15.1,0,0,0,0-9.7,6.32,6.32,0,0,0-2.32-3A6.46,6.46,0,0,0,140,258.43Z"/><path class="cls-2" d="M179.05,258.75h-13.9v6.56h11v4.33h-11v10.54h-5.39V254.41h19.29Z"/><path class="cls-2" d="M206,254.41v4.34h-8.63v21.43H192V258.75h-8.66v-4.34Z"/><text class="cls-3" transform="translate(41.46 299.52)">TECHNO<tspan class="cls-4" x="78.46" y="0">L</tspan><tspan class="cls-5" x="89.44" y="0">OGIES</tspan></text><path class="cls-2" d="M0,110.6,108.57,219.16v-7.91L4,106.64ZM12.26,98.32l-3.95,4,42.13,42.13,58.13,58.13v-7.92L54.42,140.47Zm67.25,17.37,0,0L37.21,73.39l-4,4,42.26,42.28,33.05,33.05v-8Zm-50.62-34-4,4,83.64,83.63v-7.91L71.15,124ZM16.63,94l91.94,91.94V178l-88-88Z"/><path class="cls-6" d="M8.31,102.28,66.8,160.65l4-3.93L12.26,98.32ZM0,110.6l58.44,58.32,4-3.94L4,106.64ZM24.93,85.65l58.6,58.49,4-3.94L28.89,81.69ZM37.21,73.39l-4,4,58.62,58.52,4-3.93ZM16.63,94l58.53,58.42,4-3.92L20.59,90Z"/><path class="cls-2" d="M108.56,2,0,110.56l4,4L108.56,9.92Zm0,33.25L16.62,127.19l4,4,88-88Zm0-16.62L8.31,118.87l4,4,96.29-96.29Zm0,33.24L24.94,135.5l3.95,4,79.68-79.68Zm-71.35,95.9,71.35-71.34V68.49L33.25,143.81Z"/><g class="cls-7"><polygon class="cls-8" points="108.56 2 107.55 3.02 107.55 8.9 2.94 113.5 3.96 114.52 108.56 9.92 108.56 2"/><polygon class="cls-8" points="108.56 18.63 107.55 19.64 107.55 25.52 11.25 121.81 12.27 122.83 108.56 26.54 108.56 18.63"/><polygon class="cls-8" points="108.56 51.87 107.55 52.88 107.55 58.77 27.88 138.44 28.89 139.46 108.57 59.78 108.56 51.87"/><polygon class="cls-8" points="108.56 35.25 107.55 36.27 107.55 42.15 19.56 130.13 20.58 131.15 108.56 43.16 108.56 35.25"/><polygon class="cls-8" points="107.55 75.41 36.19 146.75 37.21 147.77 108.56 76.43 108.56 68.49 107.55 69.51 107.55 75.41"/></g><path class="cls-2" d="M233.6,110.56,125,2V9.91l104.6,104.61Zm-12.26,12.28,4-4L183.16,76.75,125,18.63v7.91l54.15,54.15Zm-67.25-17.37,0,0,42.28,42.26,4-4-42.27-42.28-33-33v7.94Zm50.62,34,4-4L125,51.88v7.91L162.45,97.2ZM217,127.19,125,35.25v7.91l88,88Z"/><path class="cls-6" d="M225.3,118.89,166.81,60.51l-4,3.93,58.51,58.4Zm8.3-8.33L175.17,52.24l-4,3.94,58.45,58.34Zm-24.93,24.95L150.07,77l-4,3.94,58.62,58.51Zm-12.28,12.26,4-4L141.73,85.29l-4,3.94ZM217,127.19,158.45,68.77l-4,3.92L213,131.14Z"/><path class="cls-2" d="M125,202.54,225.29,102.29l-4-4L125,194.62Zm0-16.63L217,94l-4-4-88,88Zm104.61-79.27L125,211.25v7.91L233.6,110.6ZM196.4,73.39,125,144.73v7.94l75.32-75.32Zm8.31,8.32L125,161.38v7.91l83.63-83.63Z"/><g class="cls-7"><polygon class="cls-2" points="125.04 202.54 225.29 102.29 224.15 101.14 126.51 198.78 126.51 193.15 125.04 194.62 125.04 202.54"/><polygon class="cls-2" points="125.04 178 125.04 185.91 216.98 93.97 215.84 92.83 126.51 182.15 126.51 176.53 125.04 178"/><polygon class="cls-2" points="199.21 76.21 126.51 148.91 126.51 143.26 125.04 144.73 125.04 152.67 200.35 77.35 199.21 76.21"/><polygon class="cls-2" points="207.52 84.52 126.51 165.53 126.51 159.91 125.04 161.38 125.04 169.29 208.67 85.66 207.52 84.52"/><polygon class="cls-2" points="126.51 215.4 126.51 209.78 125.04 211.25 125.04 219.16 233.6 110.6 232.46 109.45 126.51 215.4"/></g><line class="cls-2" x1="116.39" x2="116.39" y2="222.4"/><line class="cls-2" x1="122.88" y1="112.92" x2="152.59" y2="112.92"/></g></g></g></svg>