<svg xmlns="http://www.w3.org/2000/svg" xmlns:xlink="http://www.w3.org/1999/xlink" viewBox="0 0 144.44 108.48"><defs><style>.cls-1{fill:url(#linear-gradient);}.cls-2,.cls-4,.cls-6,.cls-8{fill:none;stroke-miterlimit:10;stroke-width:5px;}.cls-2{stroke:url(#Degradado_sin_nombre_861);}.cls-3{fill:url(#linear-gradient-2);}.cls-4{stroke:url(#Degradado_sin_nombre_861-2);}.cls-5{fill:url(#linear-gradient-3);}.cls-6{stroke:url(#Degradado_sin_nombre_861-3);}.cls-7{fill:url(#linear-gradient-4);}.cls-8{stroke:url(#Degradado_sin_nombre_861-4);}</style><linearGradient id="linear-gradient" x1="2.5" y1="54.24" x2="105.76" y2="54.24" gradientUnits="userSpaceOnUse"><stop offset="0" stop-color="#ad286b"/><stop offset="1" stop-color="#45296b"/></linearGradient><radialGradient id="Degradado_sin_nombre_861" cx="54.13" cy="54.24" r="53.86" gradientUnits="userSpaceOnUse"><stop offset="0" stop-color="#220549"/><stop offset="1" stop-color="#15002b"/></radialGradient><linearGradient id="linear-gradient-2" x1="9.4" y1="54.24" x2="98.85" y2="54.24" xlink:href="#linear-gradient"/><radialGradient id="Degradado_sin_nombre_861-2" cx="238.14" cy="-114.48" r="48.11" gradientTransform="translate(-83.2 304.31) rotate(-36.27)" xlink:href="#Degradado_sin_nombre_861"/><linearGradient id="linear-gradient-3" x1="38.88" y1="54.24" x2="141.94" y2="54.24" gradientUnits="userSpaceOnUse"><stop offset="0" stop-color="#faf453"/><stop offset="0.66" stop-color="#cc795a"/><stop offset="1" stop-color="#bb3e64"/></linearGradient><radialGradient id="Degradado_sin_nombre_861-3" cx="90.41" cy="54.24" r="54.13" xlink:href="#Degradado_sin_nombre_861"/><linearGradient id="linear-gradient-4" x1="45.1" y1="54.24" x2="134.35" y2="54.24" xlink:href="#linear-gradient-3"/><radialGradient id="Degradado_sin_nombre_861-4" cx="14.53" cy="-140.76" r="48.11" gradientTransform="matrix(-0.82, 0.57, 0.57, 0.82, 194.9, 144.93)" xlink:href="#Degradado_sin_nombre_861"/></defs><title>Asset 5</title><g id="Layer_2" data-name="Layer 2"><g id="OBJECTS"><path class="cls-1" d="M89.87,105.32,17.6,103.5A15.49,15.49,0,0,1,3.09,83.73L23,14.38a15.5,15.5,0,1,1,29.79,8.55L38.41,73l52.24,1.32a15.49,15.49,0,0,1,8.77,28,15.32,15.32,0,0,1-9.16,3Z"/><path class="cls-2" d="M89.87,105.32,17.6,103.5A15.49,15.49,0,0,1,3.09,83.73L23,14.38a15.5,15.5,0,1,1,29.79,8.55L38.41,73l52.24,1.32a15.49,15.49,0,0,1,8.77,28,15.32,15.32,0,0,1-9.16,3Z"/><path class="cls-3" d="M95.33,96.75A8.49,8.49,0,0,1,90,98.41L17.77,96.59a8.59,8.59,0,0,1-8-11L29.64,16.28A8.59,8.59,0,0,1,46.15,21L29.3,79.7l61.18,1.55a8.58,8.58,0,0,1,4.85,15.5Z"/><path class="cls-4" d="M95.33,96.75A8.49,8.49,0,0,1,90,98.41L17.77,96.59a8.59,8.59,0,0,1-8-11L29.64,16.28A8.59,8.59,0,0,1,46.15,21L29.3,79.7l61.18,1.55a8.58,8.58,0,0,1,4.85,15.5Z"/><path class="cls-5" d="M104.91,106A15.52,15.52,0,0,1,90.12,85.87L105.69,36,53.63,33.47a15.49,15.49,0,0,1,.75-31l.74,0L127.2,6a15.5,15.5,0,0,1,14,20.1l-21.54,69A15.5,15.5,0,0,1,104.91,106Z"/><path class="cls-6" d="M104.91,106A15.52,15.52,0,0,1,90.12,85.87L105.69,36,53.63,33.47a15.49,15.49,0,0,1,.75-31l.74,0L127.2,6a15.5,15.5,0,0,1,14,20.1l-21.54,69A15.5,15.5,0,0,1,104.91,106Z"/><path class="cls-7" d="M109.14,97.52A8.53,8.53,0,0,0,112.42,93L134,24a8.59,8.59,0,0,0-7.79-11.14L54.1,9.42a8.58,8.58,0,1,0-.82,17.15l61,2.94L96,87.92a8.58,8.58,0,0,0,13.11,9.6Z"/><path class="cls-8" d="M109.14,97.52A8.53,8.53,0,0,0,112.42,93L134,24a8.59,8.59,0,0,0-7.79-11.14L54.1,9.42a8.58,8.58,0,1,0-.82,17.15l61,2.94L96,87.92a8.58,8.58,0,0,0,13.11,9.6Z"/></g></g></svg>